<?xml version="1.0" encoding="UTF-8"?>
<svg id="_레이어_2" data-name="레이어 2" xmlns="http://www.w3.org/2000/svg" xmlns:xlink="http://www.w3.org/1999/xlink" viewBox="0 0 1264.15 894.74">
  <defs>
    <style>
      .cls-1 {
        fill: #5fa0ff;
      }

      .cls-2 {
        fill: #125de6;
      }

      .cls-3 {
        letter-spacing: -.09em;
      }

      .cls-4 {
        letter-spacing: -.05em;
      }

      .cls-5 {
        fill: url(#_무제_그라디언트_8-2);
      }

      .cls-6 {
        letter-spacing: 0em;
      }

      .cls-7 {
        letter-spacing: -.06em;
      }

      .cls-8 {
        fill: #a1ccff;
      }

      .cls-9, .cls-10, .cls-11, .cls-12, .cls-13 {
        stroke-miterlimit: 10;
        stroke-width: 2px;
      }

      .cls-9, .cls-10, .cls-11, .cls-13 {
        fill: none;
        stroke: #4d4d4d;
        stroke-linecap: round;
      }

      .cls-14, .cls-15, .cls-16, .cls-17, .cls-18, .cls-19 {
        fill: #fff;
      }

      .cls-14, .cls-20, .cls-21, .cls-22, .cls-23, .cls-16, .cls-17, .cls-24, .cls-18, .cls-25, .cls-19 {
        font-family: PretendardVariable-SemiBold, 'Pretendard Variable';
        font-variation-settings: 'wght' 600;
        font-weight: 600;
      }

      .cls-14, .cls-23 {
        font-size: 24px;
      }

      .cls-26, .cls-27 {
        fill: #3e96ff;
      }

      .cls-28 {
        letter-spacing: -.02em;
      }

      .cls-29 {
        fill: #4d4d4d;
      }

      .cls-30 {
        letter-spacing: 0em;
      }

      .cls-31 {
        letter-spacing: -.06em;
      }

      .cls-20, .cls-32, .cls-21, .cls-22 {
        fill: #2679e3;
      }

      .cls-20, .cls-17, .cls-25, .cls-33 {
        font-size: 20px;
      }

      .cls-34 {
        fill: #c5e3ff;
      }

      .cls-35 {
        letter-spacing: -.06em;
      }

      .cls-36 {
        letter-spacing: -.05em;
      }

      .cls-37 {
        letter-spacing: -.02em;
      }

      .cls-38 {
        letter-spacing: -.02em;
      }

      .cls-39 {
        fill: url(#_무제_그라디언트_8);
      }

      .cls-40 {
        fill: #d7eaff;
      }

      .cls-41 {
        letter-spacing: -.02em;
      }

      .cls-10 {
        stroke-dasharray: 4.15 4.15;
      }

      .cls-42 {
        fill: #7aadff;
      }

      .cls-21 {
        font-size: 18px;
      }

      .cls-43 {
        letter-spacing: -.03em;
      }

      .cls-44 {
        letter-spacing: -.05em;
      }

      .cls-45 {
        letter-spacing: -.02em;
      }

      .cls-22 {
        font-size: 17px;
      }

      .cls-46 {
        letter-spacing: -.02em;
      }

      .cls-47 {
        letter-spacing: -.02em;
      }

      .cls-16, .cls-24 {
        font-size: 22px;
      }

      .cls-48 {
        letter-spacing: -.02em;
      }

      .cls-49, .cls-25, .cls-33, .cls-12 {
        fill: #2e3b89;
      }

      .cls-50 {
        letter-spacing: -.03em;
      }

      .cls-51 {
        fill: #d7edff;
      }

      .cls-52 {
        letter-spacing: -.03em;
      }

      .cls-24, .cls-53 {
        fill: #1a1a1a;
      }

      .cls-18 {
        font-size: 16.02px;
      }

      .cls-54 {
        fill: #333;
      }

      .cls-55 {
        letter-spacing: .03em;
      }

      .cls-11 {
        stroke-dasharray: 3.91 3.91;
      }

      .cls-56 {
        letter-spacing: -.04em;
      }

      .cls-57 {
        letter-spacing: -.02em;
      }

      .cls-58 {
        fill: #eef5ff;
      }

      .cls-59 {
        fill: #eee;
      }

      .cls-60 {
        letter-spacing: 0em;
      }

      .cls-61 {
        letter-spacing: 0em;
      }

      .cls-62 {
        letter-spacing: 0em;
      }

      .cls-27 {
        font-family: PretendardVariable-Medium, 'Pretendard Variable';
        font-size: 11.76px;
        font-variation-settings: 'wght' 500;
        font-weight: 500;
      }

      .cls-63 {
        letter-spacing: 0em;
      }

      .cls-19 {
        font-size: 15.29px;
      }

      .cls-33 {
        font-family: PretendardVariable-Bold, 'Pretendard Variable';
        font-variation-settings: 'wght' 700;
        font-weight: 700;
      }

      .cls-64 {
        fill: #f5f5f5;
      }

      .cls-65 {
        letter-spacing: -.02em;
      }

      .cls-66 {
        letter-spacing: -.01em;
      }

      .cls-67 {
        letter-spacing: -.07em;
      }

      .cls-68 {
        letter-spacing: -.03em;
      }

      .cls-69 {
        letter-spacing: -.01em;
      }

      .cls-70 {
        letter-spacing: -.03em;
      }

      .cls-12 {
        stroke: #2e3b89;
      }

      .cls-13 {
        stroke-dasharray: 4.03 4.03;
      }
    </style>
    <linearGradient id="_무제_그라디언트_8" data-name="무제 그라디언트 8" x1="732.73" y1="434.67" x2="732.73" y2="567.56" gradientUnits="userSpaceOnUse">
      <stop offset=".1" stop-color="#125de6" stop-opacity=".1"/>
      <stop offset="1" stop-color="#125de6" stop-opacity=".7"/>
    </linearGradient>
    <linearGradient id="_무제_그라디언트_8-2" data-name="무제 그라디언트 8" x1="191.55" y1="434.61" x2="191.55" y2="568.65" xlink:href="#_무제_그라디언트_8"/>
  </defs>
  <g id="_레이어_1-2" data-name="레이어 1">
    <g>
      <rect class="cls-42" x="339.36" y="123.47" width="196.6" height="303.71" rx="28.28" ry="28.28"/>
      <rect class="cls-59" x="30.55" y="42.74" width="223.73" height="443.9" rx="28" ry="28"/>
      <g>
        <path class="cls-15" d="M432.77,217.39c2.29,1.05,4.42,2.38,6.38,3.96l4.33-3.12c1.58-1.14,3.8-.78,4.95.81l5.31,7.39c1.14,1.58.78,3.8-.81,4.95l-4.33,3.12c.88,2.36,1.46,4.8,1.73,7.31l5.26.86c.96.16,1.77.69,2.3,1.43l-1.16.84,1.16-.84c.53.76.78,1.66.62,2.64l-1.46,8.98c-.31,1.93-2.14,3.24-4.07,2.93l-5.26-.86c-1.05,2.29-2.38,4.43-3.96,6.38l3.12,4.33c1.14,1.58.78,3.8-.81,4.95l-7.39,5.31c-1.58,1.14-3.8.78-4.95-.81l-3.12-4.33c-2.36.88-4.8,1.46-7.31,1.73l-.86,5.26c-.16.96-.69,1.77-1.43,2.3h0c-.73.53-1.69.78-2.64.62l-8.98-1.46c-1.93-.31-3.24-2.14-2.93-4.07l.86-5.26c-2.29-1.05-4.42-2.38-6.38-3.96l-4.33,3.12c-1.58,1.14-3.8.78-4.95-.81l-5.31-7.39c-1.14-1.58-.78-3.8.81-4.95l4.33-3.12c-.88-2.36-1.46-4.8-1.73-7.31l-5.26-.86c-1.93-.31-3.24-2.14-2.93-4.07l1.46-8.98c.16-.96.69-1.77,1.43-2.3h0c.73-.53,1.69-.78,2.64-.62l5.26.86c1.05-2.29,2.38-4.43,3.96-6.38l-3.12-4.33c-1.14-1.58-.78-3.8.81-4.95l7.39-5.31c1.58-1.14,3.8-.78,4.95.81l3.12,4.33c2.36-.88,4.8-1.46,7.31-1.73l.86-5.26c.31-1.93,2.14-3.24,4.07-2.93l8.98,1.46c.96.16,1.77.69,2.3,1.43l-1.16.84,1.16-.84c.53.76.78,1.66.62,2.64l-.86,5.26h0ZM422.94,227.38c-9.77-1.59-18.98,5.04-20.57,14.8s5.04,18.98,14.8,20.57,18.98-5.04,20.57-14.8c1.59-9.77-5.04-18.98-14.8-20.57Z"/>
        <path class="cls-59" d="M499.28,219.4c.09-.56-.06-1.13-.37-1.56-.31-.44-.79-.75-1.36-.84l-2.72-.44c-.15-1.28-.44-2.53-.88-3.74l2.24-1.61c.93-.67,1.15-1.98.48-2.92l-2.88-4c-.67-.93-1.98-1.15-2.92-.48l-2.24,1.61c-1.01-.8-2.1-1.48-3.27-2.03h0s.44-2.71.44-2.71c.09-.56-.06-1.13-.37-1.56-.31-.44-.79-.75-1.36-.84l-4.86-.79c-.58-.09-1.11.05-1.56.37h0c-.44.32-.75.79-.85,1.36l-.44,2.71c-1.28.15-2.53.45-3.74.88l-1.61-2.24h0c-.68-.94-1.98-1.15-2.92-.48l-4,2.88c-.93.67-1.15,1.98-.48,2.92l1.61,2.24c-.8,1.01-1.48,2.1-2.03,3.27l-2.72-.44c-.58-.09-1.11.05-1.56.37h0c-.43.32-.75.79-.84,1.36l-.79,4.86c-.09.56.06,1.13.37,1.56.31.44.79.75,1.36.84l2.72.44c.15,1.28.44,2.53.88,3.74l-2.24,1.61c-.94.68-1.14,1.99-.48,2.92l2.88,4c.68.94,1.99,1.14,2.92.48l2.24-1.61c1.01.8,2.1,1.48,3.27,2.03l-.44,2.72c-.09.56.06,1.13.37,1.56.31.44.79.75,1.36.84l4.86.79c.58.09,1.11-.05,1.56-.37h0c.43-.32.75-.79.84-1.36l.44-2.72c1.28-.15,2.53-.44,3.74-.88l1.61,2.24.77-.55-.77.55c.67.94,1.98,1.15,2.91.48l4-2.88-.55-.77.55.77c.94-.67,1.15-1.98.48-2.91l-1.61-2.24c.8-1.01,1.48-2.1,2.03-3.27l2.72.44c.58.09,1.11-.05,1.56-.37h0c.43-.32.75-.79.84-1.36l.79-4.86ZM476.72,228.21c-5.38-.88-9.03-5.95-8.15-11.33.88-5.38,5.95-9.03,11.33-8.15s9.03,5.95,8.15,11.33-5.95,9.03-11.33,8.15Z"/>
      </g>
      <circle class="cls-59" cx="142.42" cy="154.62" r="111.87"/>
      <circle class="cls-59" cx="142.42" cy="374.77" r="111.87"/>
      <rect class="cls-59" x="27.5" y="147.98" width="229.84" height="223.73" transform="translate(402.27 117.43) rotate(90)"/>
      <circle class="cls-15" cx="142.42" cy="154.62" r="101.09"/>
      <circle class="cls-15" cx="142.42" cy="374.77" r="101.09"/>
      <text class="cls-23" transform="translate(98.08 22.85)"><tspan x="0" y="0">설치 환경</tspan></text>
      <g>
        <rect class="cls-42" x="107.7" y="106.76" width="69.43" height="49.75"/>
        <g>
          <rect class="cls-32" x="101.51" y="95.66" width="81.81" height="20.82" rx="4.54" ry="4.54"/>
          <rect class="cls-42" x="110.6" y="104.2" width="30.19" height="3.75"/>
          <rect class="cls-42" x="146.72" y="104.2" width="4.78" height="3.75"/>
          <rect class="cls-42" x="157.88" y="104.2" width="4.78" height="3.75"/>
          <rect class="cls-42" x="169.03" y="104.2" width="4.78" height="3.75"/>
        </g>
        <g>
          <rect class="cls-32" x="101.51" y="121.22" width="81.81" height="20.82" rx="4.54" ry="4.54"/>
          <rect class="cls-42" x="110.6" y="129.76" width="30.19" height="3.75"/>
          <rect class="cls-42" x="146.72" y="129.76" width="4.78" height="3.75"/>
          <rect class="cls-42" x="157.88" y="129.76" width="4.78" height="3.75"/>
          <rect class="cls-42" x="169.03" y="129.76" width="4.78" height="3.75"/>
        </g>
        <g>
          <rect class="cls-32" x="101.51" y="146.78" width="81.81" height="20.82" rx="4.54" ry="4.54"/>
          <rect class="cls-42" x="110.6" y="155.32" width="30.19" height="3.75"/>
          <rect class="cls-42" x="146.72" y="155.32" width="4.78" height="3.75"/>
          <rect class="cls-42" x="157.88" y="155.32" width="4.78" height="3.75"/>
          <rect class="cls-42" x="169.03" y="155.32" width="4.78" height="3.75"/>
        </g>
      </g>
      <g>
        <path class="cls-32" d="M94.21,320.41c.06-2.11,1.98-3.96,4.1-3.89,5.28,0,10.56-.06,15.84-.04,8.66.08,17.33-.03,25.99.01,7.63-.04,15.25.02,22.88.02,6.75,0,13.5-.03,20.25,0,1.39-.05,2.7.75,3.47,1.88.47.74.67,1.64.65,2.52,0,17.32,0,34.63,0,51.95-.02,3.16.03,6.32-.02,9.49-.07,1.98-1.8,3.68-3.77,3.77-12.09,0-24.17,0-36.26,0,.55,3.13,1.12,6.26,1.59,9.4,3.22.01,6.44-.01,9.66,0,1.26.02,2.39,1.24,2.13,2.51-.14,1-1.15,1.71-2.13,1.68-11.76.04-23.52-.01-35.28,0-.71.03-1.47-.16-1.94-.72-.69-.78-.64-2.1.13-2.8.43-.44,1.05-.66,1.66-.67,3.15-.02,6.3.02,9.45-.03.59-3.12,1.12-6.25,1.63-9.38-11.87,0-23.73,0-35.6,0-.88.02-1.78-.15-2.54-.6-1.16-.68-1.9-2.01-1.89-3.35,0-20.59-.02-41.17,0-61.76M99.16,322.25c0,15.5.02,31.01-.01,46.52.03,1.35.01,2.69.02,4.04,27.74-.05,55.48,0,83.22-.03,0-16.85.02-33.69,0-50.54-27.74,0-55.49,0-83.23,0h0Z"/>
        <g>
          <polygon class="cls-42" points="140.78 330.63 155.41 339.08 155.41 355.97 140.78 364.42 126.15 355.97 126.15 339.08 140.78 330.63"/>
          <g>
            <polygon class="cls-1" points="126.15 355.97 140.78 347.52 126.15 339.08 126.15 355.97"/>
            <polygon class="cls-26" points="140.78 347.52 155.41 355.97 155.41 339.08 140.78 347.52"/>
            <polygon class="cls-8" points="140.78 364.42 155.41 355.97 140.78 347.52 140.78 364.42"/>
          </g>
        </g>
      </g>
      <circle class="cls-59" cx="731.27" cy="156.61" r="111.87"/>
      <circle class="cls-59" cx="731.27" cy="376.77" r="111.87"/>
      <rect class="cls-59" x="508.33" y="153.82" width="445.89" height="223.73" rx="28" ry="28" transform="translate(996.96 -465.59) rotate(90)"/>
      <rect class="cls-59" x="928.33" y="152.82" width="447.9" height="223.73" rx="28" ry="28" transform="translate(1416.97 -887.6) rotate(90)"/>
      <circle class="cls-15" cx="731.27" cy="156.61" r="101.09"/>
      <circle class="cls-15" cx="731.61" cy="376.77" r="101.09"/>
      <text class="cls-23" transform="translate(706.98 24.85)"><tspan x="0" y="0">제품</tspan></text>
      <text class="cls-23" transform="translate(1099.61 22.85)"><tspan x="0" y="0">클라이언트</tspan></text>
      <g>
        <g>
          <g>
            <ellipse class="cls-32" cx="731.73" cy="162.67" rx="37.55" ry="7.8"/>
            <rect class="cls-32" x="694.18" y="145.76" width="75.1" height="17.41"/>
            <ellipse class="cls-42" cx="731.73" cy="146.18" rx="37.55" ry="7.8"/>
          </g>
          <g>
            <ellipse class="cls-32" cx="731.73" cy="143.17" rx="37.55" ry="7.8"/>
            <rect class="cls-32" x="694.18" y="126.27" width="75.1" height="17.41"/>
            <ellipse class="cls-42" cx="731.73" cy="126.68" rx="37.55" ry="7.8"/>
          </g>
          <g>
            <ellipse class="cls-32" cx="731.73" cy="123.68" rx="37.55" ry="7.8"/>
            <rect class="cls-32" x="694.18" y="106.77" width="75.1" height="17.41"/>
            <ellipse class="cls-42" cx="731.73" cy="107.19" rx="37.55" ry="7.8"/>
          </g>
          <circle class="cls-42" cx="706.17" cy="120.01" r="2.5"/>
          <circle class="cls-42" cx="706.17" cy="139.77" r="2.5" transform="translate(454.56 814.23) rotate(-80.74)"/>
          <circle class="cls-42" cx="706.17" cy="159.53" r="2.5"/>
        </g>
        <g>
          <path class="cls-12" d="M776.37,141.63v9.91c0,4.54-.93,8.76-2.78,12.54-1.52,3.13-3.67,5.97-6.39,8.46-4.77,4.37-10.02,6.48-12.05,7.18-.35.12-.73.18-1.1.18s-.75-.06-1.1-.18c-2.03-.7-7.28-2.81-12.05-7.18-2.72-2.49-4.87-5.34-6.39-8.46-1.84-3.78-2.78-8-2.78-12.54v-9.91c0-1.53,1.03-2.87,2.51-3.26,9.12-2.39,15.57-6.35,17.92-7.95,1.15-.78,2.63-.78,3.78,0,2.35,1.6,8.8,5.56,17.92,7.95h0c1.48.39,2.51,1.73,2.51,3.26Z"/>
          <path class="cls-15" d="M759.48,149.91h-.77v-2.48c0-2.57-2.09-4.66-4.66-4.66s-4.66,2.09-4.66,4.66v2.48h-.77c-1.18,0-2.14.96-2.14,2.14v10.87c0,1.18.96,2.14,2.14,2.14h10.87c1.18,0,2.14-.96,2.14-2.14v-10.87c0-1.18-.96-2.14-2.14-2.14ZM755.16,158.29v1.5c0,.62-.5,1.12-1.12,1.12s-1.12-.5-1.12-1.12v-1.5c-.62-.38-1.04-1.06-1.04-1.85,0-1.19.97-2.16,2.16-2.16s2.16.97,2.16,2.16c0,.78-.42,1.47-1.04,1.84ZM756.56,149.91h-5.03v-2.48c0-1.39,1.13-2.51,2.51-2.51s2.51,1.13,2.51,2.51v2.48Z"/>
        </g>
      </g>
      <g>
        <g>
          <path class="cls-32" d="M683.36,320.41c.06-2.11,1.98-3.96,4.1-3.89,5.28,0,10.56-.06,15.84-.04,8.66.08,17.33-.03,25.99.01,7.63-.04,15.25.02,22.88.02,6.75,0,13.5-.03,20.25,0,1.39-.05,2.7.75,3.47,1.88.47.74.67,1.64.65,2.52,0,17.32,0,34.63,0,51.95-.02,3.16.03,6.32-.02,9.49-.07,1.98-1.8,3.68-3.77,3.77-12.09,0-24.17,0-36.26,0,.55,3.13,1.12,6.26,1.59,9.4,3.22.01,6.44-.01,9.66,0,1.26.02,2.39,1.24,2.13,2.51-.14,1-1.15,1.71-2.13,1.68-11.76.04-23.52-.01-35.28,0-.71.03-1.47-.16-1.94-.72-.69-.78-.64-2.1.13-2.8.43-.44,1.05-.66,1.66-.67,3.15-.02,6.3.02,9.45-.03.59-3.12,1.12-6.25,1.63-9.38-11.87,0-23.73,0-35.6,0-.88.02-1.78-.15-2.54-.6-1.16-.68-1.9-2.01-1.89-3.35,0-20.59-.02-41.17,0-61.76M688.31,322.25c0,15.5.02,31.01-.01,46.52.03,1.35.01,2.69.02,4.04,27.74-.05,55.48,0,83.22-.03,0-16.85.02-33.69,0-50.54-27.74,0-55.49,0-83.23,0h0Z"/>
          <g>
            <polygon class="cls-42" points="729.93 330.63 744.56 339.08 744.56 355.97 729.93 364.42 715.3 355.97 715.3 339.08 729.93 330.63"/>
            <g>
              <polygon class="cls-1" points="715.3 355.97 729.93 347.52 715.3 339.08 715.3 355.97"/>
              <polygon class="cls-26" points="729.93 347.52 744.56 355.97 744.56 339.08 729.93 347.52"/>
              <polygon class="cls-8" points="729.93 364.42 744.56 355.97 729.93 347.52 729.93 364.42"/>
            </g>
          </g>
        </g>
        <g>
          <path class="cls-12" d="M793.87,361.43v9.91c0,4.54-.93,8.76-2.78,12.54-1.52,3.13-3.67,5.97-6.39,8.46-4.77,4.37-10.02,6.48-12.05,7.18-.35.12-.73.18-1.1.18s-.75-.06-1.1-.18c-2.03-.7-7.28-2.81-12.05-7.18-2.72-2.49-4.87-5.34-6.39-8.46-1.84-3.78-2.78-8-2.78-12.54v-9.91c0-1.53,1.03-2.87,2.51-3.26,9.12-2.39,15.57-6.35,17.92-7.95,1.15-.78,2.63-.78,3.78,0,2.35,1.6,8.8,5.56,17.92,7.95h0c1.48.39,2.51,1.73,2.51,3.26Z"/>
          <path class="cls-15" d="M776.99,369.71h-.77v-2.48c0-2.57-2.09-4.66-4.66-4.66s-4.66,2.09-4.66,4.66v2.48h-.77c-1.18,0-2.14.96-2.14,2.14v10.87c0,1.18.96,2.14,2.14,2.14h10.87c1.18,0,2.14-.96,2.14-2.14v-10.87c0-1.18-.96-2.14-2.14-2.14ZM772.67,378.09v1.5c0,.62-.5,1.12-1.12,1.12s-1.12-.5-1.12-1.12v-1.5c-.62-.38-1.04-1.06-1.04-1.85,0-1.19.97-2.16,2.16-2.16s2.16.97,2.16,2.16c0,.78-.42,1.47-1.04,1.84ZM774.07,369.71h-5.03v-2.48c0-1.39,1.13-2.51,2.51-2.51s2.51,1.13,2.51,2.51v2.48Z"/>
        </g>
      </g>
      <g>
        <line class="cls-9" x1="229.81" y1="393.98" x2="231.81" y2="393.98"/>
        <line class="cls-11" x1="235.72" y1="393.98" x2="335.41" y2="393.98"/>
        <line class="cls-9" x1="337.36" y1="393.98" x2="339.36" y2="393.98"/>
      </g>
      <g>
        <line class="cls-9" x1="535.96" y1="393.98" x2="537.96" y2="393.98"/>
        <line class="cls-10" x1="542.1" y1="393.98" x2="639.58" y2="393.98"/>
        <line class="cls-9" x1="641.65" y1="393.98" x2="643.65" y2="393.98"/>
        <polygon class="cls-29" points="638.47 398.39 642.88 393.98 638.47 389.57 642.22 389.57 646.62 393.98 642.22 398.39 638.47 398.39"/>
      </g>
      <g>
        <line class="cls-9" x1="229.81" y1="157.2" x2="231.81" y2="157.2"/>
        <line class="cls-11" x1="235.72" y1="157.2" x2="335.41" y2="157.2"/>
        <line class="cls-9" x1="337.36" y1="157.2" x2="339.36" y2="157.2"/>
      </g>
      <g>
        <line class="cls-9" x1="535.96" y1="159.07" x2="537.96" y2="159.07"/>
        <line class="cls-10" x1="542.1" y1="159.07" x2="639.58" y2="159.07"/>
        <line class="cls-9" x1="641.65" y1="159.07" x2="643.65" y2="159.07"/>
        <polygon class="cls-29" points="638.47 163.48 642.88 159.07 638.47 154.66 642.22 154.66 646.62 159.07 642.22 163.48 638.47 163.48"/>
      </g>
      <g>
        <line class="cls-9" x1="844.2" y1="159.06" x2="846.2" y2="159.06"/>
        <line class="cls-13" x1="850.24" y1="159.06" x2="1033.77" y2="159.06"/>
        <line class="cls-9" x1="1035.79" y1="159.06" x2="1037.79" y2="159.06"/>
        <polygon class="cls-29" points="1032.61 163.46 1037.02 159.06 1032.61 154.65 1036.35 154.65 1040.76 159.06 1036.35 163.46 1032.61 163.46"/>
      </g>
      <g>
        <line class="cls-9" x1="844.2" y1="393.98" x2="846.2" y2="393.98"/>
        <line class="cls-13" x1="850.24" y1="393.98" x2="1033.77" y2="393.98"/>
        <line class="cls-9" x1="1035.79" y1="393.98" x2="1037.79" y2="393.98"/>
        <polygon class="cls-29" points="1032.61 398.39 1037.02 393.98 1032.61 389.57 1036.35 389.57 1040.76 393.98 1036.35 398.39 1032.61 398.39"/>
      </g>
      <rect class="cls-12" x="623.04" y="417.06" width="216.44" height="34" rx="12" ry="12"/>
      <text class="cls-16" transform="translate(635.1 440.64)"><tspan class="cls-65" x="0" y="0">가상 </tspan><tspan class="cls-31" x="41.94" y="0">W</tspan><tspan class="cls-57" x="62.04" y="0">ORM S</tspan><tspan class="cls-43" x="128.07" y="0">t</tspan><tspan class="cls-65" x="135.44" y="0">o</tspan><tspan class="cls-68" x="147.82" y="0">r</tspan><tspan class="cls-57" x="155.46" y="0">age</tspan></text>
      <rect class="cls-2" x="32.56" y="417.06" width="216.44" height="34" rx="12" ry="12"/>
      <text class="cls-16" transform="translate(123.54 440.64)"><tspan x="0" y="0">VM</tspan></text>
      <rect class="cls-2" x="33.44" y="193.09" width="216.44" height="34" rx="12" ry="12"/>
      <text class="cls-16" transform="translate(101.02 216.68)"><tspan x="0" y="0">물리 서버</tspan></text>
      <rect class="cls-12" x="623.04" y="197.39" width="216.44" height="34" rx="12" ry="12"/>
      <text class="cls-16" transform="translate(635.26 221.63)"><tspan class="cls-41" x="0" y="0">물리 </tspan><tspan class="cls-35" x="41.87" y="0">W</tspan><tspan class="cls-41" x="61.95" y="0">ORM S</tspan><tspan class="cls-50" x="127.87" y="0">t</tspan><tspan class="cls-41" x="135.22" y="0">o</tspan><tspan class="cls-52" x="147.58" y="0">r</tspan><tspan class="cls-41" x="155.19" y="0">age</tspan></text>
      <text class="cls-21" transform="translate(858.86 182.88)"><tspan x="0" y="0">1GbE/10GbE/40GbE</tspan></text>
      <text class="cls-21" transform="translate(877.66 416.18)"><tspan x="0" y="0">NFS/CIFS/SFTP</tspan></text>
      <text class="cls-14" transform="translate(354.32 339.08)"><tspan class="cls-44" x="0" y="0">W</tspan><tspan class="cls-6" x="22.17" y="0">ORM S</tspan><tspan class="cls-37" x="95.4" y="0">t</tspan><tspan class="cls-6" x="103.68" y="0">o</tspan><tspan class="cls-46" x="117.42" y="0">r</tspan><tspan class="cls-6" x="126" y="0">age</tspan><tspan class="cls-69"><tspan x="67.06" y="26">OS</tspan></tspan></text>
      <text class="cls-24" transform="translate(1110.74 319.53)"><tspan x="0" y="0">Wind</tspan><tspan class="cls-66" x="52.88" y="0">o</tspan><tspan x="65.38" y="0">w</tspan></text>
      <circle class="cls-54" cx="1152.29" cy="257.14" r="37.67"/>
      <g>
        <path class="cls-64" d="M1148.72,256.75v-17.21c-5.89.93-10.67,1.86-16.48,2.79v14.64c5.81-.07,10.6-.14,16.48-.21Z"/>
        <path class="cls-64" d="M1151.08,256.71c5.89-.07,13.03-.14,18.84-.21v-20.21c-5.81.93-12.95,1.86-18.84,2.79v17.63Z"/>
        <path class="cls-64" d="M1151.31,259.57c0,5.88,0,11.75,0,17.63,5.81.93,12.79,1.86,18.6,2.79v-20.21c-5.81-.07-12.79-.14-18.6-.21Z"/>
        <path class="cls-64" d="M1148.72,259.54c-5.89-.07-10.67-.14-16.48-.21v14.64c5.81.93,10.6,1.86,16.48,2.79v-17.21Z"/>
      </g>
      <text class="cls-24" transform="translate(1130.56 462.5)"><tspan x="0" y="0">Mac</tspan></text>
      <path class="cls-54" d="M1152.28,359.86c-21.32,0-38.6,17.28-38.6,38.6s17.28,38.6,38.6,38.6,38.6-17.28,38.6-38.6-17.28-38.6-38.6-38.6ZM1154.96,374.14c1.52-1.78,4.3-3.36,6.96-3.71h.36c.29,3.53-1.06,6.17-2.7,8.08-1.61,1.9-3.81,3.74-7.37,3.46-.24-3.48,1.11-5.92,2.75-7.83ZM1172.69,407.27c-1,3.03-2.43,5.63-4.17,8.03-1.59,2.19-3.54,5.13-7.01,5.13-3.01,0-5-1.93-8.08-1.99-3.26-.05-5.05,1.62-8.03,2.04h-1.02c-2.19-.32-3.95-2.05-5.24-3.61-3.79-4.61-6.72-10.57-7.27-18.19v-2.24c.23-5.46,2.88-9.89,6.41-12.04,1.86-1.14,4.42-2.12,7.26-1.68,1.22.19,2.47.61,3.56,1.02,1.04.4,2.33,1.1,3.56,1.07.83-.02,1.66-.46,2.5-.76,2.45-.89,4.86-1.9,8.03-1.42,3.81.58,6.51,2.27,8.18,4.88-3.22,2.05-5.77,5.14-5.34,10.42.39,4.79,3.17,7.6,6.66,9.25v.1Z"/>
      <text class="cls-24" transform="translate(1095.24 179.15)"><tspan x="0" y="0">Linux/UNIX</tspan></text>
      <g>
        <path class="cls-53" d="M1147.53,103.3c-.31.53.91,1.52,1.56,1.94.65.42.99.76,1.6.68.61-.08,2.51-1.25,3.38-1.78.88-.54,1.22-.54,1.3-.96.07-.41-.65-.83-1.3-1.05-.65-.23-2.4-.99-3.04-1.1-.65-.12-1.72.79-2.14,1.18-.41.37-1.37,1.1-1.37,1.1Z"/>
        <path class="cls-53" d="M1147.68,101.84c.25-.18.5-.4.76-.66-.03.01-.06.02-.09.03-.55.09-1.08-.51-1.23-1.34-.13-.82.19-1.56.73-1.65.54-.08,1.08.52,1.22,1.33.07.46.01.89-.15,1.2.1-.1.21-.19.33-.29.24-.21.5-.34.75-.43.05-.25.08-.51.08-.78,0-1.5-.83-2.71-1.85-2.71s-1.84,1.21-1.84,2.71c0,1.22.55,2.25,1.29,2.59Z"/>
        <path class="cls-53" d="M1141.43,126.12c-.55-.85-1.87-2.36-2.59-1.93-.73.41-.91,1.99-1.81,2.53-.9.55-3.25.55-3.43,1.32-.18.78.35,1.5.18,2.65-.19,1.14-.91,2.35-.43,2.9.47.54,4.16.72,5.61,1.33,1.45.61,4.64,1.98,5.78,1.63,0,0,1.28-.79,1.51-1.87.24-1.08-.54-2.29-1.39-3.2-.84-.9-2.9-4.53-3.43-5.36Z"/>
        <path class="cls-53" d="M1153.21,100.65c-.13-.25-.21-.58-.21-.9,0-.89.56-1.62,1.23-1.62s1.23.73,1.23,1.62c0,.68-.32,1.27-.79,1.5.22.09.43.18.62.26.77-.47,1.3-1.44,1.3-2.56,0-1.58-1.04-2.87-2.34-2.87s-2.34,1.29-2.34,2.87c0,.46.09.9.24,1.29.29.11.66.25,1.06.41Z"/>
        <path class="cls-53" d="M1152.29,74.68c-21.74,0-39.36,17.62-39.36,39.36s17.62,39.36,39.36,39.36,39.36-17.62,39.36-39.36-17.62-39.36-39.36-39.36ZM1171.52,132.76c-2.03,1.13-5.66,2.94-7.02,4.38-1.36,1.43-3.47,1.36-4.45.82-.98-.53-1.51-1.73-1.51-1.73,0,0-2.71-.68-5.58-.6-2.86.07-5.59.68-5.59.68,0,0-.75,1.95-3.17,1.65-2.41-.29-5.29-1.95-7.85-2.26-2.57-.3-5.21-.83-4.68-2.56.53-1.73.98-2.49.53-3.85-.45-1.36-.45-2.57,1.43-2.96,1.9-.37,2.95-.9,3.47-2.02.54-1.14,1.22-1.37,1.22-1.37,0,0-.68-1.58.29-3.31.99-1.74,1.98-5.96,3.33-8.01,1.36-2.03,3.4-4.46,3.7-5.13.29-.66.38-2.49.22-5.05-.15-2.57-1.12-8,2.05-10.19,3.17-2.19,9.05-2.49,11.32,2.64,2.27,5.12.15,9.14,2.64,12.61,2.49,3.46,5.73,8.07,6.71,10.93.98,2.88-.07,6.35-.07,6.35,0,0,1.21,1.05,1.14,2.63-.08,1.59.97,2.42,2.26,2.95,1.29.53,1.66,2.26-.39,3.39Z"/>
        <path class="cls-53" d="M1169.66,129.51c-.88-.47-1.35-1.81-1.29-2.76.06-.93-.53-1.22-.53-1.22,0,0-.41.87-1,1.46-.59.59-2.52,1.41-3.87.82-1.35-.59-1.11-2.81-1.11-2.81,0,0-.47-.11-.76.12-.29.23-.06,1.81,0,2.99.06,1.17-.29,3.23-.71,5.1-.4,1.88.42,3.17,1.36,3.46.93.3,2.46-.71,3.62-1.93,1.17-1.23,5.1-2.82,5.81-3.46.7-.65-.65-1.3-1.53-1.76Z"/>
        <path class="cls-53" d="M1161.56,123.55s.76-2.42.3-5.59c-.46-3.17-4.98-13.12-5.51-13.58-.53-.45-4.08,2.19-5.66,2.64-1.58.45-3.85-2.27-3.85-2.27.37,1.13-.45,3.7-1.51,4.9-1.05,1.21-1.73,4.83-2.78,6.49-1.07,1.66-1.74,4.98-.91,6.95.83,1.96,5.44,4.15,5.66,5.73.22,1.59-1.36,1.82-1.36,1.82l2.03,2.33s1.81.38,5.44-.14c3.62-.54,5.96-3.78,5.96-3.78,0,0,0-3.85.22-4.91.22-1.05,1.95-.6,1.95-.6Z"/>
      </g>
      <polygon class="cls-39" points="873.09 565.1 592.36 565.1 636.53 440.64 828.88 440.64 873.09 565.1"/>
      <path class="cls-5" d="M272.53,566.17H8.19c-1.82,0-3.09-1.85-2.48-3.62l40.91-120.09c.37-1.09,1.37-1.82,2.48-1.82h182.49c1.12,0,2.11.73,2.48,1.82l143.48,120.09c.6,1.77-103.2,3.62-105.02,3.62Z"/>
      <g>
        <rect class="cls-49" x="592.36" y="547.9" width="280.72" height="346.83" rx="17.2" ry="17.2"/>
        <g>
          <g>
            <g>
              <g>
                <g>
                  <ellipse class="cls-40" cx="655.91" cy="658.87" rx="33.03" ry="5.73"/>
                  <rect class="cls-40" x="622.88" y="646.45" width="66.05" height="12.79"/>
                  <ellipse class="cls-58" cx="655.91" cy="646.75" rx="33.03" ry="5.73"/>
                </g>
                <g>
                  <ellipse class="cls-40" cx="655.91" cy="644.54" rx="33.03" ry="5.73"/>
                  <rect class="cls-40" x="622.88" y="632.12" width="66.05" height="12.79"/>
                  <ellipse class="cls-58" cx="655.91" cy="632.43" rx="33.03" ry="5.73"/>
                </g>
                <g>
                  <ellipse class="cls-40" cx="655.91" cy="630.21" rx="33.03" ry="5.73"/>
                  <rect class="cls-40" x="622.88" y="617.79" width="66.05" height="12.79"/>
                  <ellipse class="cls-58" cx="655.91" cy="618.1" rx="33.03" ry="5.73"/>
                </g>
              </g>
              <g>
                <g>
                  <ellipse class="cls-40" cx="732.83" cy="658.87" rx="33.03" ry="5.73"/>
                  <rect class="cls-40" x="699.81" y="646.45" width="66.05" height="12.79"/>
                  <ellipse class="cls-58" cx="732.83" cy="646.75" rx="33.03" ry="5.73"/>
                </g>
                <g>
                  <ellipse class="cls-40" cx="732.83" cy="644.54" rx="33.03" ry="5.73"/>
                  <rect class="cls-40" x="699.81" y="632.12" width="66.05" height="12.79"/>
                  <ellipse class="cls-58" cx="732.83" cy="632.43" rx="33.03" ry="5.73"/>
                </g>
                <g>
                  <ellipse class="cls-40" cx="732.83" cy="630.21" rx="33.03" ry="5.73"/>
                  <rect class="cls-40" x="699.81" y="617.79" width="66.05" height="12.79"/>
                  <ellipse class="cls-58" cx="732.83" cy="618.1" rx="33.03" ry="5.73"/>
                </g>
              </g>
              <g>
                <g>
                  <ellipse class="cls-40" cx="809.76" cy="658.87" rx="33.03" ry="5.73"/>
                  <rect class="cls-40" x="776.73" y="646.45" width="66.05" height="12.79"/>
                  <ellipse class="cls-58" cx="809.76" cy="646.75" rx="33.03" ry="5.73"/>
                </g>
                <g>
                  <ellipse class="cls-40" cx="809.76" cy="644.54" rx="33.03" ry="5.73"/>
                  <rect class="cls-40" x="776.73" y="632.12" width="66.05" height="12.79"/>
                  <ellipse class="cls-58" cx="809.76" cy="632.43" rx="33.03" ry="5.73"/>
                </g>
                <g>
                  <ellipse class="cls-40" cx="809.76" cy="630.21" rx="33.03" ry="5.73"/>
                  <rect class="cls-40" x="776.73" y="617.79" width="66.05" height="12.79"/>
                  <ellipse class="cls-58" cx="809.76" cy="618.1" rx="33.03" ry="5.73"/>
                </g>
              </g>
            </g>
            <text class="cls-17" transform="translate(663.94 603.93)"><tspan class="cls-56" x="0" y="0">W</tspan><tspan x="18.67" y="0">ORM </tspan><tspan class="cls-7" x="68.25" y="0">V</tspan><tspan x="80.99" y="0">olume</tspan></text>
          </g>
          <g>
            <rect class="cls-42" x="610.98" y="690.21" width="249.95" height="40.98" rx="10.75" ry="10.75"/>
            <text class="cls-17" transform="translate(671.51 718)"><tspan class="cls-44" x="0" y="0">W</tspan><tspan class="cls-69" x="18.47" y="0">ORM S</tspan><tspan class="cls-37" x="79.5" y="0">t</tspan><tspan class="cls-62" x="86.4" y="0">o</tspan><tspan class="cls-46" x="97.85" y="0">r</tspan><tspan class="cls-69" x="105" y="0">age OS</tspan></text>
            <g>
              <path class="cls-15" d="M642.11,703.19c.75.34,1.44.77,2.07,1.29l1.41-1.01c.51-.37,1.24-.25,1.61.26l1.73,2.4c.37.51.25,1.24-.26,1.61l-1.41,1.01c.28.77.47,1.56.56,2.38l1.71.28c.31.05.57.23.75.46l-.38.27.38-.27c.17.25.25.54.2.86l-.48,2.92c-.1.63-.7,1.05-1.32.95l-1.71-.28c-.34.75-.77,1.44-1.29,2.07l1.01,1.41c.37.51.25,1.24-.26,1.61l-2.4,1.73c-.51.37-1.24.25-1.61-.26l-1.01-1.41c-.77.28-1.56.47-2.38.56l-.28,1.71c-.05.31-.22.58-.46.75h0c-.24.17-.55.25-.86.2l-2.92-.48c-.63-.1-1.05-.7-.95-1.32l.28-1.71c-.75-.34-1.44-.77-2.07-1.29l-1.41,1.01c-.51.37-1.24.25-1.61-.26l-1.73-2.4c-.37-.51-.25-1.24.26-1.61l1.41-1.01c-.28-.77-.47-1.56-.56-2.38l-1.71-.28c-.63-.1-1.05-.7-.95-1.32l.48-2.92c.05-.31.22-.58.46-.75h0c.24-.17.55-.25.86-.2l1.71.28c.34-.75.77-1.44,1.29-2.07l-1.01-1.41c-.37-.51-.25-1.24.26-1.61l2.4-1.73c.51-.37,1.24-.25,1.61.26l1.01,1.41c.77-.28,1.56-.47,2.38-.56l.28-1.71c.1-.63.7-1.05,1.32-.95l2.92.48c.31.05.57.22.75.46l-.38.27.38-.27c.17.25.25.54.2.86l-.28,1.71h0ZM638.91,706.43c-3.17-.52-6.17,1.64-6.69,4.81s1.64,6.17,4.81,6.69,6.17-1.64,6.69-4.81c.52-3.17-1.64-6.17-4.81-6.69Z"/>
              <path class="cls-15" d="M663.72,703.84c.03-.18-.02-.37-.12-.51-.1-.14-.26-.24-.44-.27l-.88-.14c-.05-.42-.14-.82-.29-1.22l.73-.52c.3-.22.37-.64.15-.95l-.93-1.3c-.22-.3-.64-.37-.95-.15l-.73.52c-.33-.26-.68-.48-1.06-.66h0s.14-.88.14-.88c.03-.18-.02-.37-.12-.51-.1-.14-.26-.24-.44-.27l-1.58-.26c-.19-.03-.36.02-.51.12h0c-.14.1-.24.26-.27.44l-.14.88c-.42.05-.82.14-1.22.29l-.52-.73h0c-.22-.3-.64-.37-.95-.15l-1.3.93c-.3.22-.37.64-.15.95l.52.73c-.26.33-.48.68-.66,1.06l-.88-.14c-.19-.03-.36.02-.51.12h0c-.14.1-.24.26-.27.44l-.26,1.58c-.03.18.02.37.12.51.1.14.26.24.44.27l.88.14c.05.42.14.82.29,1.22l-.73.52c-.31.22-.37.65-.15.95l.93,1.3c.22.31.65.37.95.15l.73-.52c.33.26.68.48,1.06.66l-.14.88c-.03.18.02.37.12.51.1.14.26.24.44.27l1.58.26c.19.03.36-.02.51-.12h0c.14-.1.24-.26.27-.44l.14-.88c.42-.05.82-.14,1.22-.29l.52.73.25-.18-.25.18c.22.3.64.37.95.15l1.3-.93-.18-.25.18.25c.3-.22.37-.64.15-.95l-.52-.73c.26-.33.48-.68.66-1.06l.88.14c.19.03.36-.02.51-.12h0c.14-.1.24-.26.27-.44l.26-1.58ZM656.39,706.7c-1.75-.29-2.93-1.93-2.65-3.68s1.93-2.93,3.68-2.65,2.93,1.93,2.65,3.68-1.93,2.93-3.68,2.65Z"/>
            </g>
          </g>
          <g>
            <g>
              <ellipse class="cls-34" cx="735.96" cy="791.2" rx="122.84" ry="11.04"/>
              <rect class="cls-34" x="613.12" y="767.26" width="245.68" height="24.66"/>
              <ellipse class="cls-51" cx="735.96" cy="767.85" rx="122.84" ry="11.04"/>
            </g>
            <text class="cls-25" transform="translate(707.76 786.12)"><tspan x="0" y="0">vDISK</tspan></text>
          </g>
          <g>
            <path class="cls-15" d="M618.41,827.86h64.32c2.76,0,5,2.24,5,5v19.21c0,3.14-2.55,5.68-5.68,5.68h-63.64c-3.14,0-5.68-2.55-5.68-5.68v-18.53c0-3.14,2.55-5.68,5.68-5.68Z"/>
            <text class="cls-20" transform="translate(624.35 849.87)"><tspan x="0" y="0">vCPU</tspan></text>
          </g>
          <g>
            <path class="cls-15" d="M704.58,827.86h62.32c2.76,0,5,2.24,5,5v17.21c0,4.24-3.44,7.68-7.68,7.68h-59.64c-4.24,0-7.68-3.44-7.68-7.68v-14.53c0-4.24,3.44-7.68,7.68-7.68Z"/>
            <text class="cls-20" transform="translate(707.21 849.87)"><tspan x="0" y="0">vMEN</tspan></text>
          </g>
          <g>
            <path class="cls-15" d="M789.01,827.86h62.32c2.76,0,5,2.24,5,5v17.21c0,4.24-3.44,7.68-7.68,7.68h-59.64c-4.24,0-7.68-3.44-7.68-7.68v-14.53c0-4.24,3.44-7.68,7.68-7.68Z"/>
            <text class="cls-20" transform="translate(796.47 849.87)"><tspan x="0" y="0">vNIC</tspan></text>
          </g>
        </g>
      </g>
      <rect class="cls-49" y="547.9" width="377.55" height="346.83" rx="17.2" ry="17.2"/>
      <rect class="cls-42" x="16.82" y="695.15" width="343.68" height="113.25" rx="10.75" ry="10.75"/>
      <text class="cls-17" transform="translate(138.67 719.62)"><tspan class="cls-69" x="0" y="0">Hype</tspan><tspan class="cls-61" x="47.83" y="0">r</tspan><tspan class="cls-69" x="55.49" y="0">viser</tspan></text>
      <path class="cls-15" d="M31.38,734.06h146.23c2.76,0,5,2.24,5,5v19.21c0,3.14-2.55,5.68-5.68,5.68H31.38c-3.14,0-5.68-2.55-5.68-5.68v-18.53c0-3.14,2.55-5.68,5.68-5.68Z"/>
      <text class="cls-22" transform="translate(36.68 754.6)"><tspan x="0" y="0">VMwa</tspan><tspan class="cls-48" x="49.67" y="0">r</tspan><tspan x="55.78" y="0">e vSphe</tspan><tspan class="cls-47" x="119.22" y="0">r</tspan><tspan class="cls-60" x="125.33" y="0">e</tspan></text>
      <g>
        <path class="cls-15" d="M31.38,768.92h105.77c2.76,0,5,2.24,5,5v19.21c0,3.14-2.55,5.68-5.68,5.68H31.38c-3.14,0-5.68-2.55-5.68-5.68v-18.53c0-3.14,2.55-5.68,5.68-5.68Z"/>
        <text class="cls-22" transform="translate(44.23 789.46)"><tspan x="0" y="0">Citrix XEN</tspan></text>
      </g>
      <g>
        <path class="cls-15" d="M152.95,768.92h113.89c2.76,0,5,2.24,5,5v19.21c0,3.14-2.55,5.68-5.68,5.68h-113.21c-3.14,0-5.68-2.55-5.68-5.68v-18.53c0-3.14,2.55-5.68,5.68-5.68Z"/>
        <text class="cls-22" transform="translate(161.74 789.46)"><tspan x="0" y="0">MS Hype</tspan><tspan class="cls-28" x="70.81" y="0">r</tspan><tspan class="cls-70" x="76.81" y="0">-</tspan><tspan class="cls-60" x="83.83" y="0">V</tspan></text>
      </g>
      <g>
        <path class="cls-15" d="M282.94,768.92h61.8c2.76,0,5,2.24,5,5v19.21c0,3.14-2.55,5.68-5.68,5.68h-61.12c-3.14,0-5.68-2.55-5.68-5.68v-18.53c0-3.14,2.55-5.68,5.68-5.68Z"/>
        <text class="cls-22" transform="translate(294.66 789.46)"><tspan x="0" y="0">KVM</tspan></text>
      </g>
      <rect class="cls-15" x="15.61" y="566.17" width="343.68" height="112.79" rx="12" ry="12"/>
      <g>
        <path class="cls-15" d="M194.34,734.06h150.4c2.76,0,5,2.24,5,5v19.21c0,3.14-2.55,5.68-5.68,5.68h-149.72c-3.14,0-5.68-2.55-5.68-5.68v-18.53c0-3.14,2.55-5.68,5.68-5.68Z"/>
        <text class="cls-22" transform="translate(198.56 754.6)"><tspan x="0" y="0">O</tspan><tspan class="cls-30" x="12.65" y="0">r</tspan><tspan x="18.89" y="0">acle Vi</tspan><tspan class="cls-55" x="71.4" y="0">r</tspan><tspan x="78.29" y="0">tual B</tspan><tspan class="cls-45" x="122.57" y="0">o</tspan><tspan class="cls-60" x="132.12" y="0">x</tspan></text>
      </g>
      <text class="cls-33" transform="translate(74.5 665.57)"><tspan x="0" y="0">다양한 솔루션 운영 가상 머신</tspan></text>
      <g>
        <text class="cls-27" transform="translate(274.95 600.51)"><tspan x="0" y="0">· · · · ·</tspan></text>
        <g>
          <g>
            <polygon class="cls-42" points="327.41 576.78 344.62 586.71 344.62 606.58 327.41 616.51 310.2 606.58 310.2 586.71 327.41 576.78"/>
            <g>
              <polygon class="cls-1" points="310.2 606.58 327.41 596.64 310.2 586.71 310.2 606.58"/>
              <polygon class="cls-26" points="327.41 596.64 344.62 606.58 344.62 586.71 327.41 596.64"/>
              <polygon class="cls-8" points="327.41 616.51 344.62 606.58 327.41 596.64 327.41 616.51"/>
            </g>
          </g>
          <text class="cls-19" transform="translate(315.43 602.17)"><tspan x="0" y="0">VM</tspan></text>
        </g>
        <g>
          <text class="cls-27" transform="translate(228.52 632.63)"><tspan x="0" y="0">보안관제</tspan></text>
          <g>
            <g>
              <polygon class="cls-42" points="248.84 576.78 266.05 586.71 266.05 606.58 248.84 616.51 231.64 606.58 231.64 586.71 248.84 576.78"/>
              <g>
                <polygon class="cls-1" points="231.64 606.58 248.84 596.64 231.64 586.71 231.64 606.58"/>
                <polygon class="cls-26" points="248.84 596.64 266.05 606.58 266.05 586.71 248.84 596.64"/>
                <polygon class="cls-8" points="248.84 616.51 266.05 606.58 248.84 596.64 248.84 616.51"/>
              </g>
            </g>
            <text class="cls-19" transform="translate(236.87 602.17)"><tspan x="0" y="0">VM</tspan></text>
          </g>
        </g>
        <g>
          <text class="cls-27" transform="translate(176.49 632.63)"><tspan class="cls-36" x="0" y="0">W</tspan><tspan x="10.47" y="0">eb</tspan></text>
          <g>
            <g>
              <polygon class="cls-42" points="188.53 576.78 205.74 586.71 205.74 606.58 188.53 616.51 171.32 606.58 171.32 586.71 188.53 576.78"/>
              <g>
                <polygon class="cls-1" points="171.32 606.58 188.53 596.64 171.32 586.71 171.32 606.58"/>
                <polygon class="cls-26" points="188.53 596.64 205.74 606.58 205.74 586.71 188.53 596.64"/>
                <polygon class="cls-8" points="188.53 616.51 205.74 606.58 188.53 596.64 188.53 616.51"/>
              </g>
            </g>
            <text class="cls-19" transform="translate(176.55 602.17)"><tspan x="0" y="0">VM</tspan></text>
          </g>
        </g>
        <g>
          <text class="cls-27" transform="translate(118.34 632.63)"><tspan x="0" y="0">Log</tspan></text>
          <g>
            <g>
              <polygon class="cls-42" points="128.34 576.78 145.55 586.71 145.55 606.58 128.34 616.51 111.14 606.58 111.14 586.71 128.34 576.78"/>
              <g>
                <polygon class="cls-1" points="111.14 606.58 128.34 596.64 111.14 586.71 111.14 606.58"/>
                <polygon class="cls-26" points="128.34 596.64 145.55 606.58 145.55 586.71 128.34 596.64"/>
                <polygon class="cls-8" points="128.34 616.51 145.55 606.58 128.34 596.64 128.34 616.51"/>
              </g>
            </g>
            <text class="cls-19" transform="translate(116.36 602.17)"><tspan x="0" y="0">VM</tspan></text>
          </g>
        </g>
        <g>
          <text class="cls-27" transform="translate(30.28 632.63)"><tspan class="cls-3" x="0" y="0">W</tspan><tspan class="cls-4" x="10.08" y="0">ORM St</tspan><tspan class="cls-67" x="46.82" y="0">r</tspan><tspan class="cls-4" x="50.3" y="0">oage</tspan></text>
          <g>
            <g>
              <polygon class="cls-42" points="67.87 576.78 85.08 586.71 85.08 606.58 67.87 616.51 50.67 606.58 50.67 586.71 67.87 576.78"/>
              <g>
                <polygon class="cls-1" points="50.67 606.58 67.87 596.64 50.67 586.71 50.67 606.58"/>
                <polygon class="cls-26" points="67.87 596.64 85.08 606.58 85.08 586.71 67.87 596.64"/>
                <polygon class="cls-8" points="67.87 616.51 85.08 606.58 67.87 596.64 67.87 616.51"/>
              </g>
            </g>
            <text class="cls-18" transform="translate(55.33 601.96)"><tspan x="0" y="0">VM</tspan></text>
          </g>
        </g>
      </g>
      <path class="cls-15" d="M163.11,849.69c-4.11-3.35-9.59-5.19-15.41-5.19h-.89s0-.09,0-.14c0-5.37-2.57-10.42-7.24-14.21-4.67-3.8-10.87-5.89-17.48-5.89-5.35,0-10.44,1.37-14.66,3.92-1.02-1.22-2.19-2.37-3.5-3.44-5.41-4.4-12.6-6.82-20.24-6.82s-14.84,2.42-20.24,6.82c-5.41,4.4-8.38,10.24-8.38,16.46,0,1.29.13,2.56.38,3.8-3.84.76-7.37,2.36-10.24,4.69-4.11,3.35-6.38,7.8-6.38,12.53s2.27,9.18,6.38,12.53,9.59,5.19,15.41,5.19h87.09c5.82,0,11.29-1.84,15.41-5.19s6.38-7.8,6.38-12.53c0-4.73-2.27-9.18-6.38-12.53Z"/>
      <path class="cls-15" d="M325,849.69c-4.11-3.35-9.59-5.19-15.41-5.19h-.89s0-.09,0-.14c0-5.37-2.57-10.42-7.24-14.21-4.67-3.8-10.87-5.89-17.48-5.89-5.35,0-10.44,1.37-14.66,3.92-1.02-1.22-2.19-2.37-3.5-3.44-5.41-4.4-12.6-6.82-20.24-6.82s-14.84,2.42-20.24,6.82c-5.41,4.4-8.38,10.24-8.38,16.46,0,1.29.13,2.56.38,3.8-3.84.76-7.37,2.36-10.24,4.69-4.11,3.35-6.38,7.8-6.38,12.53s2.27,9.18,6.38,12.53c4.11,3.35,9.59,5.19,15.41,5.19h87.09c5.82,0,11.29-1.84,15.41-5.19s6.38-7.8,6.38-12.53c0-4.73-2.27-9.18-6.38-12.53Z"/>
      <text class="cls-20" transform="translate(68.7 849.12)"><tspan x="0" y="0">Pri</tspan><tspan class="cls-38" x="24.76" y="0">v</tspan><tspan x="35.48" y="0">a</tspan><tspan class="cls-63" x="46.47" y="0">t</tspan><tspan x="53.57" y="0">e</tspan><tspan x="5.19" y="20">Cloud</tspan></text>
      <text class="cls-20" transform="translate(234.22 849.12)"><tspan x="0" y="0">Public</tspan><tspan x="1.17" y="20">Cloud</tspan></text>
    </g>
  </g>
</svg>