<?xml version="1.0" encoding="UTF-8"?>
<svg id="_레이어_2" data-name="레이어 2" xmlns="http://www.w3.org/2000/svg" xmlns:xlink="http://www.w3.org/1999/xlink" viewBox="0 0 1769.94 883.84">
  <defs>
    <style>
      .cls-1 {
        stroke-dasharray: 3.99 3.99;
      }

      .cls-1, .cls-2, .cls-3, .cls-4, .cls-5, .cls-6, .cls-7, .cls-8, .cls-9 {
        stroke-miterlimit: 10;
        stroke-width: 2px;
      }

      .cls-1, .cls-2, .cls-3, .cls-4, .cls-5, .cls-6, .cls-7, .cls-9 {
        fill: none;
      }

      .cls-1, .cls-2, .cls-3, .cls-4, .cls-6, .cls-7 {
        stroke-linecap: round;
      }

      .cls-1, .cls-2, .cls-3, .cls-7 {
        stroke: #4d4d4d;
      }

      .cls-10 {
        fill: #ea5529;
      }

      .cls-11, .cls-12 {
        fill: #125de6;
      }

      .cls-13 {
        fill: #231815;
      }

      .cls-14 {
        fill: #00a161;
      }

      .cls-15 {
        font-size: 19.79px;
      }

      .cls-15, .cls-16, .cls-17 {
        fill: #fff;
      }

      .cls-15, .cls-17, .cls-12 {
        font-family: PretendardVariable-Bold, 'Pretendard Variable';
        font-variation-settings: 'wght' 700;
        font-weight: 700;
      }

      .cls-18, .cls-19, .cls-20, .cls-21, .cls-22 {
        font-family: PretendardVariable-SemiBold, 'Pretendard Variable';
        font-variation-settings: 'wght' 600;
        font-weight: 600;
      }

      .cls-18, .cls-23 {
        font-size: 20px;
      }

      .cls-24 {
        fill: #f6ab00;
      }

      .cls-25 {
        fill: #417dea;
      }

      .cls-26 {
        fill: #4d4d4d;
      }

      .cls-19 {
        font-size: 21px;
      }

      .cls-23, .cls-27, .cls-28 {
        font-family: PretendardVariable-Medium, 'Pretendard Variable';
        font-variation-settings: 'wght' 500;
        font-weight: 500;
      }

      .cls-23, .cls-28 {
        fill: #333;
      }

      .cls-29 {
        fill: #595757;
      }

      .cls-27 {
        font-size: 18px;
      }

      .cls-30 {
        fill: #f5f6f6;
      }

      .cls-31 {
        fill: #2679e3;
      }

      .cls-3 {
        stroke-dasharray: 3.94 3.94;
      }

      .cls-32 {
        fill: #7aadff;
      }

      .cls-33 {
        fill: #e6002d;
      }

      .cls-34 {
        fill: #0b1199;
      }

      .cls-35 {
        fill: #6d6e71;
      }

      .cls-28, .cls-17, .cls-12, .cls-21, .cls-22 {
        font-size: 22px;
      }

      .cls-20 {
        font-size: 24px;
      }

      .cls-36 {
        fill: url(#_무제_그라디언트_19);
      }

      .cls-37 {
        fill: #004ea2;
      }

      .cls-38 {
        fill: #003668;
      }

      .cls-4, .cls-6 {
        stroke: #d62532;
      }

      .cls-39 {
        fill: #e2e3e4;
      }

      .cls-40 {
        letter-spacing: -.01em;
      }

      .cls-41 {
        fill: #eee;
      }

      .cls-42 {
        fill: #999;
      }

      .cls-5 {
        stroke: #247ce0;
      }

      .cls-5, .cls-9 {
        stroke-dasharray: 4 4;
      }

      .cls-6 {
        stroke-dasharray: 3.96 3.96;
      }

      .cls-43 {
        letter-spacing: 0em;
      }

      .cls-44 {
        fill: #ecedee;
      }

      .cls-45, .cls-21 {
        fill: #d62532;
      }

      .cls-46 {
        fill: #94a3aa;
      }

      .cls-7 {
        stroke-dasharray: 4.12 4.12;
      }

      .cls-47 {
        fill: #e6e7e8;
      }

      .cls-48 {
        fill: #f7f7f7;
      }

      .cls-8 {
        fill: #2e3b89;
        stroke: #2e3b89;
      }

      .cls-49 {
        fill: url(#_무제_그라디언트_16);
      }

      .cls-9 {
        stroke: #999;
      }
    </style>
    <linearGradient id="_무제_그라디언트_19" data-name="무제 그라디언트 19" x1="886.97" y1="390.78" x2="886.97" y2="464.32" gradientUnits="userSpaceOnUse">
      <stop offset="0" stop-color="#999"/>
      <stop offset=".7" stop-color="#5b85d2"/>
      <stop offset="1" stop-color="#417dea"/>
    </linearGradient>
    <linearGradient id="_무제_그라디언트_16" data-name="무제 그라디언트 16" x1="886.97" y1="405.71" x2="886.97" y2="479.25" gradientUnits="userSpaceOnUse">
      <stop offset="0" stop-color="#999"/>
      <stop offset="1" stop-color="#417dea"/>
    </linearGradient>
  </defs>
  <g id="_레이어_1-2" data-name="레이어 1">
    <g>
      <g>
        <polygon class="cls-36" points="886.92 464.11 832.39 432.63 832.39 454.12 886.92 485.6 886.92 485.6 886.92 485.6 941.54 454.06 941.54 432.57 886.92 464.11"/>
        <polygon class="cls-49" points="886.92 450.11 886.92 450.11 886.92 450.11 941.54 418.57 941.54 397.08 886.92 428.62 832.39 397.14 832.39 418.63 886.92 450.11"/>
      </g>
      <g>
        <circle class="cls-48" cx="922.93" cy="172.5" r="111.87"/>
        <g>
          <g>
            <circle class="cls-25" cx="955.48" cy="137.97" r="11.85" transform="translate(182.3 716.04) rotate(-45)"/>
            <path class="cls-25" d="M979.35,176.18h-30.45c-2.25-6.18-6.77-11.28-12.54-14.28,4.35-5.82,11.3-9.59,19.13-9.59,13.18,0,23.87,10.69,23.87,23.87Z"/>
          </g>
          <g>
            <circle class="cls-25" cx="890.62" cy="137.96" r="11.85" transform="translate(-10.02 170.91) rotate(-10.9)"/>
            <path class="cls-25" d="M909.75,161.9c-5.78,3-10.3,8.1-12.55,14.28h-30.46c0-13.19,10.69-23.88,23.88-23.88,7.83,0,14.78,3.77,19.13,9.6Z"/>
          </g>
          <g>
            <circle class="cls-11" cx="923.14" cy="133.44" r="13.25" transform="translate(249.85 778.94) rotate(-52.02)"/>
            <path class="cls-11" d="M949.84,176.18h-53.4c0-3.51.68-6.86,1.91-9.94,2.43-6.05,7-11.01,12.79-13.92,3.61-1.82,7.69-2.84,12-2.84s8.39,1.02,12,2.84c5.78,2.91,10.36,7.87,12.79,13.92,1.24,3.07,1.91,6.43,1.91,9.94Z"/>
          </g>
        </g>
        <text transform="translate(892.05 217.4)"><tspan class="cls-20"><tspan x="0" y="0">사용자</tspan></tspan><tspan class="cls-27"><tspan x="-6.43" y="24">(정보주체)</tspan></tspan></text>
        <g>
          <g>
            <line class="cls-2" x1="635.13" y1="159.17" x2="637.13" y2="159.17"/>
            <line class="cls-7" x1="641.25" y1="159.17" x2="770.9" y2="159.17"/>
            <line class="cls-2" x1="772.96" y1="159.17" x2="774.96" y2="159.17"/>
            <polygon class="cls-26" points="769.78 163.57 774.19 159.17 769.78 154.76 773.52 154.76 777.93 159.17 773.52 163.57 769.78 163.57"/>
          </g>
          <g>
            <line class="cls-2" x1="777.93" y1="185.3" x2="775.93" y2="185.3"/>
            <line class="cls-7" x1="771.82" y1="185.3" x2="642.16" y2="185.3"/>
            <line class="cls-2" x1="640.1" y1="185.3" x2="638.1" y2="185.3"/>
            <polygon class="cls-26" points="643.28 180.89 638.87 185.3 643.28 189.71 639.54 189.71 635.13 185.3 639.54 180.89 643.28 180.89"/>
          </g>
          <g>
            <g>
              <circle class="cls-45" cx="647.7" cy="130.66" r="10.72"/>
              <path class="cls-16" d="M643.11,132.85l5.3-8.19h1.16v2.17h-.76l-3.79,5.85v.1h7.29v1.54h-9.2v-1.48ZM648.93,133.89v-.68s0-8.55,0-8.55h1.73v12.02h-1.74v-2.79Z"/>
            </g>
            <text class="cls-21" transform="translate(664.27 137.9)"><tspan x="0" y="0">행정서류 발급</tspan></text>
          </g>
          <g>
            <g>
              <circle class="cls-45" cx="647.7" cy="214.34" r="10.72"/>
              <path class="cls-16" d="M645.5,220.1c-.65-.28-1.16-.67-1.53-1.17s-.57-1.08-.6-1.73h1.84c.03.34.15.64.37.91s.51.47.88.61.77.22,1.21.22c.48,0,.91-.08,1.29-.25s.69-.4.9-.69c.21-.29.32-.63.32-1.01,0-.4-.1-.76-.32-1.07s-.52-.55-.93-.72c-.41-.17-.9-.26-1.46-.26h-1.03v-1.49h1.03c.45,0,.86-.08,1.21-.24s.63-.38.82-.67c.19-.29.29-.62.28-1,0-.37-.08-.69-.25-.97s-.42-.5-.73-.65-.68-.23-1.1-.23-.79.07-1.14.22-.63.35-.85.61c-.22.27-.34.58-.35.94h-1.76c.03-.64.23-1.21.59-1.71.37-.5.86-.89,1.48-1.17.62-.28,1.3-.42,2.04-.42s1.45.15,2.03.44c.58.29,1.03.69,1.35,1.18s.47,1.05.46,1.65c.01.44-.07.85-.25,1.22-.17.37-.42.68-.75.92-.32.25-.7.42-1.13.53v.09c.54.07,1.01.24,1.4.5.39.26.69.59.89.99s.3.85.29,1.36c.01.65-.17,1.24-.55,1.77s-.9.94-1.56,1.25-1.41.45-2.22.45-1.54-.14-2.19-.42Z"/>
            </g>
            <text class="cls-21" transform="translate(664.27 221.58)"><tspan x="0" y="0">행정서류 신청</tspan></text>
          </g>
        </g>
        <g>
          <g>
            <line class="cls-2" x1="1063.7" y1="158.86" x2="1065.7" y2="158.86"/>
            <line class="cls-7" x1="1069.81" y1="158.86" x2="1199.47" y2="158.86"/>
            <line class="cls-2" x1="1201.53" y1="158.86" x2="1203.53" y2="158.86"/>
            <polygon class="cls-26" points="1198.35 163.27 1202.76 158.86 1198.35 154.46 1202.09 154.46 1206.5 158.86 1202.09 163.27 1198.35 163.27"/>
          </g>
          <g>
            <line class="cls-2" x1="1206.5" y1="188.66" x2="1204.5" y2="188.66"/>
            <line class="cls-7" x1="1200.38" y1="188.66" x2="1070.73" y2="188.66"/>
            <line class="cls-2" x1="1068.67" y1="188.66" x2="1066.67" y2="188.66"/>
            <polygon class="cls-26" points="1071.85 184.25 1067.44 188.66 1071.85 193.07 1068.1 193.07 1063.7 188.66 1068.1 184.25 1071.85 184.25"/>
          </g>
          <g>
            <text class="cls-21" transform="translate(1088.6 105.96)"><tspan x="0" y="0">행정서류 제출</tspan></text>
            <text class="cls-22" transform="translate(1088.6 137.6)"><tspan x="0" y="0">청년수당 신청</tspan></text>
            <g>
              <circle class="cls-45" cx="1073.01" cy="131.01" r="10.72"/>
              <path class="cls-16" d="M1074.82,136.6h-1.84v-10.19h-.07l-2.86,1.88v-1.75l2.98-1.96h1.79v12.02Z"/>
            </g>
            <g>
              <circle class="cls-45" cx="1073.01" cy="98.8" r="10.72"/>
              <path class="cls-16" d="M1070.87,104.47c-.61-.29-1.1-.68-1.45-1.18-.36-.5-.55-1.07-.58-1.7h1.77c.04.34.16.65.38.91.21.27.49.48.82.63.33.16.7.24,1.1.24.48,0,.9-.11,1.28-.32.38-.21.68-.51.89-.89s.32-.8.32-1.27c0-.49-.11-.93-.33-1.31-.22-.38-.53-.68-.92-.9-.4-.22-.84-.33-1.33-.33-.5-.01-.92.07-1.28.24s-.63.44-.84.81h-1.72l.78-6.69h6.81v1.57h-5.29l-.42,3.35h.11c.27-.24.6-.43,1-.58.4-.15.82-.22,1.27-.22.75,0,1.42.17,2.02.51.6.34,1.07.82,1.41,1.43.34.61.51,1.3.5,2.07,0,.77-.18,1.47-.54,2.09-.37.62-.88,1.1-1.53,1.45-.65.35-1.38.52-2.2.52-.75,0-1.43-.14-2.04-.43Z"/>
            </g>
          </g>
          <g>
            <g>
              <text class="cls-21" transform="translate(1088.6 221.28)"><tspan x="0" y="0">행정서류 요청</tspan></text>
              <g>
                <circle class="cls-45" cx="1073.01" cy="214.04" r="10.72"/>
                <path class="cls-16" d="M1068.96,218.8l4.18-4.21c.5-.52.89-.94,1.16-1.26.27-.32.47-.64.61-.95.14-.31.2-.64.2-.98,0-.38-.1-.72-.29-1.01-.19-.29-.46-.52-.8-.68-.34-.16-.72-.24-1.14-.24s-.82.09-1.15.26c-.33.17-.58.42-.76.75-.18.32-.27.7-.27,1.12h-1.73c0-.72.17-1.36.51-1.91s.81-.98,1.41-1.29c.6-.3,1.28-.46,2.05-.46s1.43.15,2.03.44,1.06.7,1.39,1.22c.33.52.5,1.1.5,1.74,0,.46-.09.9-.26,1.33s-.46.9-.87,1.41-1,1.15-1.76,1.9l-2.45,2.48v.09h5.54v1.57h-8.08v-1.33Z"/>
              </g>
            </g>
            <g>
              <text class="cls-22" transform="translate(1088.6 253.53)"><tspan x="0" y="0">청년수당 지급</tspan></text>
              <g>
                <circle class="cls-45" cx="1073.01" cy="246.29" r="10.72"/>
                <path class="cls-16" d="M1070.89,251.9c-.68-.37-1.23-.98-1.66-1.83-.43-.86-.64-1.98-.64-3.38s.19-2.56.57-3.55c.38-.99.92-1.74,1.63-2.25.7-.51,1.53-.77,2.49-.77.73,0,1.38.14,1.96.42.57.28,1.04.67,1.4,1.17.36.5.59,1.07.69,1.71h-1.81c-.09-.34-.23-.63-.43-.89-.2-.26-.45-.46-.75-.59s-.66-.21-1.05-.21c-.61,0-1.14.17-1.58.51-.44.34-.77.83-1,1.48-.23.65-.35,1.43-.36,2.33h.13c.22-.34.49-.63.8-.87.31-.24.67-.43,1.06-.56s.8-.2,1.23-.2c.71,0,1.36.17,1.96.51.59.34,1.06.81,1.4,1.41.34.6.51,1.28.51,2.03s-.18,1.47-.54,2.1c-.36.62-.87,1.11-1.52,1.47s-1.4.53-2.24.53c-.81-.01-1.56-.2-2.24-.56ZM1074.41,250.59c.38-.23.69-.54.91-.93.22-.39.34-.81.34-1.27s-.11-.9-.32-1.28c-.22-.38-.51-.68-.9-.9s-.81-.33-1.29-.33-.9.12-1.29.34-.7.54-.93.92c-.23.38-.35.8-.36,1.25,0,.44.12.85.34,1.24.22.39.53.7.92.93s.82.35,1.3.35.91-.11,1.29-.34Z"/>
              </g>
            </g>
          </g>
        </g>
        <g>
          <circle class="cls-41" cx="495.78" cy="181.77" r="111.87"/>
          <circle class="cls-41" cx="153.72" cy="181.77" r="111.87"/>
          <rect class="cls-41" x="153.72" y="69.9" width="343.4" height="223.73"/>
        </g>
        <circle class="cls-16" cx="495.78" cy="181.51" r="101.09"/>
        <circle class="cls-16" cx="153.72" cy="181.51" r="101.09"/>
        <g>
          <path class="cls-25" d="M119.72,139.46l30.53-16.59c.14-.07.3-.07.44,0l30.53,16.59c.42.23.25.86-.22.86h-61.05c-.47,0-.63-.63-.22-.86Z"/>
          <rect class="cls-25" x="106.68" y="197.25" width="87.58" height="6.32" rx=".29" ry=".29"/>
          <rect class="cls-25" x="111.59" y="187.71" width="77.75" height="6.32" rx=".29" ry=".29"/>
          <rect class="cls-25" x="118.15" y="143.53" width="64.64" height="6.32" rx=".53" ry=".53"/>
          <g>
            <path class="cls-11" d="M120.49,153.08c-.92,3.69-1.7,9.35-1.7,15.71s.78,12.02,1.7,15.71h4.12c.92-3.69,1.7-9.35,1.7-15.71s-.78-12.02-1.7-15.71h-4.12Z"/>
            <path class="cls-11" d="M134.45,153.08c-.92,3.69-1.7,9.35-1.7,15.71s.78,12.02,1.7,15.71h4.12c.92-3.69,1.7-9.35,1.7-15.71s-.78-12.02-1.7-15.71h-4.12Z"/>
            <path class="cls-11" d="M148.41,153.08c-.92,3.69-1.7,9.35-1.7,15.71s.78,12.02,1.7,15.71h4.12c.92-3.69,1.7-9.35,1.7-15.71s-.78-12.02-1.7-15.71h-4.12Z"/>
            <path class="cls-11" d="M162.37,153.08c-.92,3.69-1.7,9.35-1.7,15.71s.78,12.02,1.7,15.71h4.12c.92-3.69,1.7-9.35,1.7-15.71s-.78-12.02-1.7-15.71h-4.12Z"/>
            <path class="cls-11" d="M176.33,153.08c-.92,3.69-1.7,9.35-1.7,15.71s.78,12.02,1.7,15.71h4.12c.92-3.69,1.7-9.35,1.7-15.71s-.78-12.02-1.7-15.71h-4.12Z"/>
          </g>
        </g>
        <text class="cls-20" transform="translate(90.7 243.73)"><tspan x="0" y="0">정보보유기관</tspan></text>
        <g>
          <line class="cls-2" x1="264.19" y1="183.89" x2="266.19" y2="183.89"/>
          <line class="cls-3" x1="270.13" y1="183.89" x2="378.36" y2="183.89"/>
          <line class="cls-2" x1="380.33" y1="183.89" x2="382.33" y2="183.89"/>
          <polygon class="cls-26" points="377.15 188.3 381.56 183.89 377.15 179.48 380.9 179.48 385.3 183.89 380.9 188.3 377.15 188.3"/>
        </g>
        <text class="cls-28" transform="translate(258.87 72.32)"><tspan x="0" y="0">주민등록등초본</tspan><tspan x="-19.01" y="26.4">고용보험근로내역서</tspan><tspan x="19.01" y="52.8">병적증명서</tspan><tspan class="cls-40"><tspan x="63.65" y="72.8">.</tspan></tspan><tspan class="cls-40"><tspan x="63.65" y="81.8">.</tspan></tspan><tspan class="cls-40"><tspan x="63.65" y="90.8">.</tspan></tspan></text>
        <g>
          <g>
            <path class="cls-38" d="M460.92,181.01c-3.98-2.71-9.08-1.6-11.75,2.47-2.24,3.4-5.61,3.82-6.92,3.82-4.26,0-7.17-3-8.03-6.1h0s-.02-.06-.02-.09c0-.03-.02-.07-.03-.1-.34-1.29-.42-1.91-.42-3.29,0-7.41,7.61-15.67,18.56-15.67s17.64,8.54,19.3,13.29c-.03-.08-.05-.17-.08-.25-3.19-9.28-11.99-15.96-22.35-15.96-13.04,0-23.62,10.58-23.62,23.63,0,11.66,8.41,21.65,20.07,21.65,9.31,0,15.56-5.22,18.43-12.41,1.57-3.93.46-8.56-3.12-10.98"/>
            <g>
              <path class="cls-29" d="M483.98,174.19v-2.43h13.12v2.43h-5.58l5.81,7.1-1.97,1.64-4.72-5.87-4.64,6.25-2.05-1.64,5.82-7.48h-5.79ZM502.14,189.08c0,.77-.16,1.49-.47,2.16-.32.67-.74,1.27-1.27,1.78-.53.51-1.16.92-1.88,1.22-.73.3-1.5.45-2.32.45s-1.57-.15-2.31-.45c-.73-.3-1.37-.71-1.9-1.22-.53-.51-.95-1.11-1.27-1.78-.32-.68-.47-1.39-.47-2.16s.16-1.49.47-2.16c.32-.68.74-1.27,1.27-1.78.53-.51,1.16-.92,1.9-1.22.74-.3,1.51-.45,2.31-.45s1.59.15,2.32.45c.73.3,1.35.71,1.88,1.22.53.51.95,1.11,1.27,1.78.32.67.47,1.39.47,2.16M499.35,189.05c0-.85-.31-1.59-.94-2.2-.62-.61-1.37-.92-2.24-.92s-1.59.31-2.2.92c-.61.62-.92,1.35-.92,2.2s.31,1.61.92,2.22c.61.61,1.35.91,2.2.91s1.62-.3,2.24-.91c.62-.61.94-1.35.94-2.22M501.24,183.21v-4.94h-4.25v-2.46h4.25v-4.71h2.85v12.12h-2.85Z"/>
              <path class="cls-29" d="M507.46,185.54h21v2.51h-9.09v5.89h-2.84v-5.89h-9.07v-2.51ZM511.94,174.37h12.02v-2.9h2.82v10.99h-17.62v-10.99h2.79v2.9ZM523.95,176.83h-12.02v3.15h12.02v-3.15Z"/>
              <g>
                <path class="cls-29" d="M546.67,194.23h-14.37v-3.21l8.2-7.64c.12-.12.27-.25.41-.39,1.21-1.14,3.04-2.86,3.04-4.95s-1.13-4.68-4.3-4.68c-2.53,0-4.23,1.62-4.55,4.33l-.08.55-2.73-.4.09-.57c.93-5.77,5.32-6.39,7.17-6.39,4.32,0,7.11,2.88,7.11,7.33,0,2.85-1.91,4.73-3.44,6.23l-.26.25-7.55,7.04h11.25,0v2.5h0Z"/>
                <path class="cls-29" d="M563.85,187.42h-2.54v-16.24h-2.41l-10.54,15.86v2.88h10.39v4.31h2.56v-4.31h2.99v-2.5h-.45ZM551.14,187.42l7.6-11.64v11.64h-7.6Z"/>
              </g>
            </g>
          </g>
          <path class="cls-33" d="M471.64,175.75c-1.38-4.63-7.85-13.75-19.44-13.75-10.96,0-18.56,8.25-18.56,15.67,0,1.38.08,1.99.42,3.29-.14-.57-.22-1.13-.22-1.69,0-7.72,7.73-13.07,15.68-13.07,10.76,0,19.48,8.72,19.48,19.48,0,8.43-4.85,15.73-11.91,19.24h0c9.09-3.29,15.58-11.99,15.58-22.22,0-2.42-.33-4.55-1.04-6.95"/>
        </g>
        <rect class="cls-9" x="1" y="1" width="1767.94" height="356.17" rx="12" ry="12"/>
        <g>
          <rect class="cls-42" x="692.52" y="334.78" width="384.89" height="45.96" rx="12" ry="12"/>
          <text class="cls-17" transform="translate(801.29 365)"><tspan x="0" y="0">기존 업무 프로세스 </tspan></text>
        </g>
        <circle class="cls-41" cx="1610.87" cy="172.5" r="111.87"/>
        <circle class="cls-41" cx="1342.35" cy="172.67" r="111.87"/>
        <rect class="cls-41" x="1347.98" y="60.8" width="263.16" height="223.73"/>
        <circle class="cls-16" cx="1609.54" cy="172.41" r="101.09"/>
        <circle class="cls-16" cx="1342.35" cy="172.41" r="101.09"/>
        <g>
          <g>
            <g>
              <g>
                <path class="cls-13" d="M1339.33,171.48c-1.39.42-2.43.44-3.18.44-2.19,0-4.73-1.3-4.73-4.97s2.18-5.05,5.2-5.05c.54,0,1.69.07,2.49.43l-.18,2.11c-.68-.47-1.49-.62-2.01-.62-1.78,0-3.24.87-3.24,3.14,0,1.9,1.15,3.05,2.75,3.05.3,0,.58-.06.78-.17v-1.92h-1.28v-1.83h3.41v5.39Z"/>
                <path class="cls-13" d="M1343.19,168.11l-3.05-6.04h2.53l1.62,3.88,1.59-3.88h2.53l-3.02,6.04v3.65h-2.2v-3.65Z"/>
                <path class="cls-13" d="M1349.13,162.07h5.8v1.83h-3.61v2h3.41v1.83h-3.41v2.19h3.74v1.83h-5.93v-9.69Z"/>
                <path class="cls-13" d="M1358.24,166.91c0-1.68.53-3.09,1.86-3.09s1.86,1.41,1.86,3.09-.53,3.1-1.86,3.1-1.86-1.5-1.86-3.1ZM1355.97,166.91c0,3.08,1.44,5.01,4.13,5.01s4.13-1.93,4.13-5.01-1.41-5.01-4.13-5.01-4.13,1.9-4.13,5.01Z"/>
                <path class="cls-13" d="M1365.37,162.07h2.8l2.78,6.58h.02l-.04-6.58h2.01v9.69h-2.73l-2.88-6.62h-.02l.07,6.62h-2.02v-9.69Z"/>
                <path class="cls-13" d="M1382,171.48c-1.39.42-2.43.44-3.18.44-2.19,0-4.73-1.3-4.73-4.97s2.18-5.05,5.2-5.05c.54,0,1.69.07,2.49.43l-.18,2.11c-.68-.47-1.49-.62-2.01-.62-1.78,0-3.24.87-3.24,3.14,0,1.9,1.14,3.05,2.75,3.05.29,0,.58-.06.78-.17v-1.92h-1.29v-1.83h3.41v5.38Z"/>
                <path class="cls-13" d="M1383.49,162.07h2.8l2.78,6.58h.02l-.04-6.58h2v9.69h-2.73l-2.88-6.62h-.02l.07,6.62h-2.02v-9.69Z"/>
                <path class="cls-13" d="M1397.29,167.86h-2.06l1.06-3.79h.02l.98,3.79ZM1391.84,171.76h2.23l.65-2.07h3.09l.61,2.07h2.41l-3.17-9.69h-2.69l-3.12,9.69Z"/>
                <path class="cls-13" d="M1401.51,162.07h3.46l1.74,6.44h.02l1.83-6.44h3.33v9.69s-2.15,0-2.15,0l.04-7.44h-.02l-2.1,7.44h-2.02l-2.01-7.44h-.02l.05,7.44h-2.15v-9.69Z"/>
              </g>
              <g>
                <g>
                  <polygon class="cls-13" points="1385.55 142.8 1378.22 142.8 1378.22 135.94 1375.28 135.94 1375.28 145.12 1385.55 145.12 1385.55 142.8"/>
                  <polygon class="cls-13" points="1344.98 146.54 1347.94 146.54 1347.94 135.65 1344.98 135.65 1344.98 137.75 1341.81 137.75 1341.81 140.07 1344.98 140.07 1344.98 141.6 1341.81 141.6 1341.81 143.93 1344.98 143.93 1344.98 146.54"/>
                  <polygon class="cls-13" points="1405.6 152.78 1405.6 147.16 1410.58 147.16 1410.58 144.84 1399.96 144.84 1399.96 138.66 1410.58 138.66 1410.58 136.34 1397.01 136.34 1397.01 147.16 1402.65 147.16 1402.65 152.78 1395.58 152.78 1395.58 155.11 1412.01 155.11 1412.01 152.78 1405.6 152.78"/>
                  <polygon class="cls-13" points="1390.23 135.65 1387.29 135.65 1387.29 146.22 1390.23 146.22 1390.23 141.3 1392.81 141.3 1392.81 138.97 1390.23 138.97 1390.23 135.65"/>
                  <path class="cls-13" d="M1378.59,147.52v8.5h11.65v-8.5h-11.65ZM1381.54,153.7v-3.85h5.75v3.85h-5.75Z"/>
                  <path class="cls-13" d="M1341.7,146.27c-3.27,0-5.93,2.4-5.93,5.37s2.65,5.37,5.93,5.37,5.93-2.4,5.93-5.37-2.65-5.37-5.93-5.37ZM1341.7,154.51c-1.59,0-2.87-1.29-2.87-2.88s1.28-2.88,2.87-2.88,2.87,1.29,2.87,2.88-1.28,2.88-2.87,2.88Z"/>
                  <path class="cls-13" d="M1362.33,146.27c-3.27,0-5.92,2.4-5.92,5.37s2.65,5.37,5.92,5.37,5.92-2.4,5.92-5.37-2.65-5.37-5.92-5.37ZM1362.33,154.51c-1.58,0-2.87-1.29-2.87-2.88s1.28-2.88,2.87-2.88,2.87,1.29,2.87,2.88-1.28,2.88-2.87,2.88Z"/>
                  <path class="cls-13" d="M1340.41,140.8s.79-2.06.74-4.6h-9.73v2.38h6.17s.22,4.73-6.57,5.73l1.18,2.04c2.15-.18,6.48-1.27,8.2-5.55Z"/>
                </g>
                <path class="cls-13" d="M1362.75,145.74l1.2-1.98c-4.61-1.53-4.58-6.16-4.58-6.65v-1.06h-3.62v1.09c0,.43.18,5.42-4.52,7.19l1.26,1.9s3.28-.94,5.17-4.19c1.64,2.87,5.1,3.7,5.1,3.7Z"/>
                <polygon class="cls-13" points="1368.66 135.65 1365.71 135.65 1365.71 146.54 1368.66 146.54 1368.66 141.3 1371.23 141.3 1371.23 138.97 1368.66 138.97 1368.66 135.65"/>
              </g>
            </g>
            <g>
              <path class="cls-10" d="M1296.94,127.89c-8.64-.17-16.33,4.15-20.85,10.81.08.1.16.19.22.27.05.06.09.11.13.16.03,0,.05,0,.07.01.32.06.8.14,1.22.52.26.24.43.5.56.71.06.09.14.21.17.25.07.07.18.15.29.24.19.14.4.3.6.51.17.17.33.35.48.52.1.13.2.24.31.35.08.09.19.18.3.28.17.15.36.32.55.53.24.26.37.54.48.77.04.08.11.21.13.25h0c.17.19.33.4.48.59l.24.3c.04.05.14.14.24.22.18.16.41.35.61.61.15.2.28.39.4.58.09.14.17.26.25.38.19.26.31.53.41.75.05.12.1.24.15.3.04.06.13.15.23.25.16.16.35.36.53.62.18.27.29.55.37.77.03.09.07.18.1.24.03.02.07.05.11.07.22.15.57.38.81.77.13.22.22.44.3.63l.47.32c.77.52,1.09.25.72-.6l-4.33-9.87c-.37-.85-.22-.94.34-.2l6.46,8.54c.56.74.95.59.87-.33l-.91-10.71c-.08-.92.1-.96.39-.08l3.12,10.11c.3.88.68.86.86-.05l1.75-10.43c.18-.91.36-.9.4.03l.45,10.67c.04.93.45,1.02.91.23l5.33-9.23c.46-.8.63-.73.36.16l-3.02,10.19c-.26.89.09,1.11.79.51l8-6.94c.7-.61.83-.49.29.27l-4.6,6.45c.23,0,.47-.02.65-.12.37-.2.59-.71.98-.9.39-.18.89-.12,1.28-.29.39-.17.66-.63,1.05-.79.39-.16.81-.27,1.2-.42.43-.16.84-.41,1.26-.55.43-.14.89-.21,1.31-.34.42-.13.93.05,1.35-.07.45-.13.79-.61,1.23-.72.44-.11.91-.05,1.33-.14.45-.11.91-.09,1.33-.18.46-.1.86-.34,1.27-.42.08-.02.16-.02.25-.03-3.05-9.86-12.14-17.12-23.03-17.33Z"/>
              <path class="cls-14" d="M1293.21,175.54s0-.05.02-.07c-.02-.03-.04-.07-.06-.1-.12-.21-.28-.49-.36-.85-.03-.14-.07-.3-.13-.46-.06-.18-.12-.39-.17-.62-.06-.29-.07-.56-.08-.78,0-.13,0-.27-.03-.34-.06-.23-.09-.45-.12-.65-.02-.16-.04-.32-.08-.45-.03-.11-.08-.24-.14-.39-.08-.19-.16-.4-.23-.65l-.06-.24-.21-.81c-.04-.13-.09-.28-.15-.43-.07-.18-.14-.37-.2-.59-.11-.37-.1-.72-.09-.98,0-.08,0-.17,0-.21-.05-.15-.1-.3-.17-.47-.07-.17-.14-.35-.2-.54-.02-.04-.08-.12-.13-.19-.14-.2-.34-.46-.46-.81-.03-.1-.1-.23-.17-.37-.09-.18-.2-.39-.28-.63-.07-.19-.14-.38-.22-.57l-.17-.44c-.16-.42-.13-.82-.11-1.09,0-.04,0-.08,0-.11-.04-.09-.1-.19-.16-.31-.1-.18-.22-.39-.31-.63-.02-.06-.1-.18-.18-.29-.12-.18-.27-.41-.39-.68-.1-.23-.16-.45-.22-.64-.05-.15-.09-.3-.13-.4-.08-.18-.15-.36-.21-.53-.07-.17-.13-.33-.2-.48l-.2-.45c-.09-.2-.18-.4-.27-.58-.03-.07-.12-.18-.2-.29-.13-.17-.29-.38-.43-.65-.15-.29-.22-.57-.28-.79-.02-.07-.04-.16-.06-.22-.03-.03-.08-.06-.11-.1-.21-.16-.49-.39-.69-.76-.2-.35-.26-.71-.3-.96-.01-.07-.03-.16-.04-.2-.13-.23-.22-.46-.29-.64-.04-.1-.07-.19-.11-.27-.03-.02-.08-.05-.11-.08-.23-.15-.54-.36-.78-.73-.17-.26-.27-.52-.35-.74-.04-.11-.09-.24-.13-.28-.05-.07-.14-.17-.24-.27-.15-.16-.32-.33-.48-.56-.18-.26-.29-.51-.38-.72-.05-.11-.11-.24-.14-.29-.13-.18-.24-.35-.34-.5-.1-.15-.19-.3-.28-.41-.05-.06-.15-.15-.26-.24-.16-.14-.37-.32-.55-.55l-.25-.32c-.15-.19-.29-.36-.43-.53-.22-.26-.36-.53-.46-.75-.04-.08-.09-.18-.12-.22-.1-.11-.22-.22-.35-.33-.14-.13-.3-.27-.45-.43-.13-.14-.25-.28-.37-.41-.13-.15-.25-.3-.37-.41-.09-.09-.21-.18-.34-.28-.16-.12-.33-.25-.51-.42-.25-.24-.41-.49-.54-.7-.03-.04-.06-.08-.08-.12-.03,0-.05,0-.07-.01-.29-.05-.74-.13-1.12-.46-.07-.06-.14-.12-.2-.18-1.77,3.31-2.81,7.08-2.89,11.1-.24,12.64,9.09,23.23,21.33,24.86-.02-.08-.05-.17-.06-.26-.08-.44.01-.82.08-1.08Z"/>
              <path class="cls-37" d="M1291.04,159.85c.04.1.11.22.18.36.11.2.24.42.34.69.16.43.13.83.12,1.11,0,.04,0,.1,0,.13l.13.33c.08.21.16.42.24.64.03.09.1.22.16.35.1.2.21.42.3.69,0-.02-.01-.03-.01-.03.02.03.08.12.13.19.15.2.35.48.47.85.04.13.1.28.16.43.08.21.16.42.23.65.12.38.1.74.09,1,0,.07,0,.17,0,.22.04.11.08.24.14.38.07.19.16.41.22.65l.22.84.06.24c.03.1.07.23.13.36.08.2.17.44.24.7.06.24.09.48.12.68.02.16.04.31.08.44.07.3.08.58.09.8,0,.13.01.27.03.35.03.13.08.27.12.43.06.19.12.41.18.64.01.04.06.12.09.17.12.21.29.51.37.89.09.44,0,.83-.07,1.09-.01.04-.02.08-.03.12.02.08.05.17.08.28.06.17.11.36.16.56.06,0,.12,0,.17,0,7.27.14,13.87-2.89,18.47-7.82-8.54-6.56-19.03-8.86-23.48-9.58.03.05.05.1.07.16Z"/>
              <path class="cls-24" d="M1320.92,152.98c.03-1.87-.14-3.69-.51-5.44-.15.03-.31.05-.46.08-.42.08-.8.35-1.2.43-.41.08-.8.21-1.2.3-.44.1-.88.12-1.29.23-.42.11-.88.07-1.28.19-.41.12-.75.44-1.14.56-.43.14-.88.17-1.28.32-.41.15-.88.12-1.27.28-.39.16-.72.47-1.09.63-.41.17-.86.22-1.24.4-.42.2-.72.58-1.1.78-.39.2-.78.37-1.13.58-.39.23-.81.37-1.15.59-.38.24-.64.62-.97.85-.38.27-.66.62-.98.87-.37.3-.81.43-1.1.7-.29.26-.6.44-.85.64l-.55.88c-.11.42-.11.72-.29.47l-1.19,1.91c4.98,1.52,10.95,4.04,16.26,8.17,3.05-4.01,4.9-8.98,5.01-14.4Z"/>
            </g>
          </g>
          <g>
            <rect class="cls-11" x="1271.86" y="190.69" width="140.16" height="31" rx="12" ry="12"/>
            <text class="cls-15" transform="translate(1290.63 212.7)"><tspan x="0" y="0">청년구직수당</tspan></text>
          </g>
        </g>
        <g id="_11" data-name="11">
          <g>
            <g>
              <polygon class="cls-14" points="1614.73 116.19 1605.01 116.19 1605.01 117.11 1614.73 126.83 1614.73 116.19"/>
              <polygon class="cls-14" points="1605.01 117.11 1605.01 178.74 1614.73 178.74 1614.73 126.83 1605.01 117.11"/>
              <polygon class="cls-14" points="1624.2 116.19 1614.73 116.19 1614.73 126.83 1624.2 136.3 1624.2 116.19"/>
              <polygon class="cls-14" points="1614.73 126.83 1614.73 178.74 1624.2 178.74 1624.2 136.3 1614.73 126.83"/>
              <polygon class="cls-30" points="1607.01 119.1 1607.01 162.04 1614.73 162.04 1614.73 126.83 1607.01 119.1"/>
              <polygon class="cls-16" points="1614.73 118.94 1607.01 118.94 1607.01 119.1 1614.73 126.83 1614.73 118.94"/>
              <polygon class="cls-44" points="1622.21 118.94 1614.73 118.94 1614.73 126.83 1622.21 134.3 1622.21 118.94"/>
              <polygon class="cls-39" points="1614.73 126.83 1614.73 162.04 1622.21 162.04 1622.21 134.3 1614.73 126.83"/>
              <path class="cls-35" d="M1614.61,174.36c-2.25,0-4.08-1.83-4.08-4.08s1.83-4.08,4.08-4.08c.04,0,.08,0,.12,0h.03c2.21.08,3.94,1.87,3.94,4.08s-1.73,4-3.94,4.08h-.03s-.08,0-.12,0Z"/>
              <path class="cls-30" d="M1611.13,170.28c0,1.92,1.56,3.47,3.47,3.47.04,0,.08,0,.12,0v-6.93s-.08,0-.12,0c-1.92,0-3.47,1.55-3.47,3.47Z"/>
              <path class="cls-39" d="M1614.73,166.81v6.93c1.86-.07,3.35-1.59,3.35-3.47s-1.49-3.4-3.35-3.47Z"/>
            </g>
            <g>
              <polygon class="cls-24" points="1633.92 116.19 1624.2 116.19 1624.2 136.3 1633.92 146.02 1633.92 116.19"/>
              <polygon class="cls-24" points="1624.2 136.3 1624.2 178.74 1633.92 178.74 1633.92 146.02 1624.2 136.3"/>
              <polygon class="cls-24" points="1643.39 116.19 1633.92 116.19 1633.92 146.02 1643.39 155.48 1643.39 116.19"/>
              <polygon class="cls-24" points="1633.92 146.02 1633.92 178.74 1643.39 178.74 1643.39 155.48 1633.92 146.02"/>
              <polygon class="cls-16" points="1633.92 118.94 1626.2 118.94 1626.2 138.29 1633.92 146.02 1633.92 118.94"/>
              <polygon class="cls-30" points="1626.2 138.29 1626.2 162.04 1633.92 162.04 1633.92 146.02 1626.2 138.29"/>
              <polygon class="cls-44" points="1641.4 118.94 1633.92 118.94 1633.92 146.02 1641.4 153.49 1641.4 118.94"/>
              <polygon class="cls-39" points="1633.92 146.02 1633.92 162.04 1641.4 162.04 1641.4 153.49 1633.92 146.02"/>
              <path class="cls-35" d="M1633.8,174.36c-2.25,0-4.08-1.83-4.08-4.08s1.83-4.08,4.08-4.08c.04,0,.08,0,.12,0h.03c2.21.08,3.94,1.87,3.94,4.08s-1.73,4-3.94,4.08h-.03s-.08,0-.12,0Z"/>
              <path class="cls-30" d="M1630.32,170.28c0,1.92,1.56,3.47,3.47,3.47.04,0,.08,0,.12,0v-6.93s-.08,0-.12,0c-1.92,0-3.47,1.55-3.47,3.47Z"/>
              <path class="cls-39" d="M1633.92,166.81v6.93c1.86-.07,3.35-1.59,3.35-3.47s-1.49-3.4-3.35-3.47Z"/>
            </g>
            <g>
              <rect class="cls-37" x="1554.88" y="140.25" width="62.54" height="9.72" transform="translate(1088.99 1658.31) rotate(-77.04)"/>
              <rect class="cls-37" x="1564.23" y="142.53" width="62.54" height="9.47" transform="translate(1094.16 1669.09) rotate(-77.04)"/>
              <rect class="cls-16" x="1567.14" y="134.67" width="43.11" height="7.72" transform="translate(1097.37 1655.68) rotate(-77.04)"/>
              <rect class="cls-47" x="1574.54" y="136.5" width="43.11" height="7.48" transform="translate(1101.57 1664.26) rotate(-77.04)"/>
              <path class="cls-35" d="M1585.66,172.48c-.26,0-.52-.03-.78-.07h-.03s-.08-.02-.11-.03c-1.06-.24-1.97-.89-2.55-1.81-.58-.92-.76-2.02-.52-3.08.43-1.86,2.06-3.17,3.98-3.17.31,0,.62.04.92.1.04,0,.08.02.11.03h.03c2.13.58,3.42,2.71,2.92,4.86-.43,1.86-2.06,3.16-3.97,3.16h0Z"/>
              <path class="cls-16" d="M1586.43,165.02c-1.87-.43-3.73.74-4.16,2.61-.43,1.87.74,3.73,2.61,4.16.04,0,.08.01.12.02l1.56-6.76s-.08-.03-.12-.04Z"/>
              <path class="cls-47" d="M1589.04,169.18c.42-1.83-.69-3.65-2.49-4.13l-1.56,6.76c1.83.35,3.62-.8,4.04-2.63Z"/>
            </g>
          </g>
          <rect class="cls-46" x="1566.02" y="179.08" width="87.05" height="7.07"/>
        </g>
        <text class="cls-19" transform="translate(1552.6 221.69)"><tspan x="0" y="0">제출서류 보관</tspan></text>
        <path class="cls-16" d="M1493.45,174.04l-25.17,14.53c-1.05.61-2.37-.15-2.37-1.37v-29.07c0-1.21,1.31-1.97,2.37-1.37l25.17,14.53c1.05.61,1.05,2.13,0,2.73Z"/>
      </g>
      <g>
        <rect class="cls-5" x="1" y="526.67" width="1767.94" height="356.17" rx="12" ry="12"/>
        <rect class="cls-45" x="391.75" y="600.83" width="239.65" height="42.74" rx="12" ry="12"/>
        <g>
          <circle class="cls-48" cx="194.26" cy="716.65" r="111.87"/>
          <g>
            <g>
              <circle class="cls-25" cx="225.66" cy="680.17" r="11.42" transform="translate(-414.86 358.78) rotate(-45)"/>
              <path class="cls-25" d="M248.68,717.03h-29.37c-2.17-5.96-6.53-10.88-12.1-13.77,4.2-5.62,10.9-9.25,18.45-9.25,12.71,0,23.02,10.31,23.02,23.02Z"/>
            </g>
            <g>
              <circle class="cls-25" cx="163.1" cy="680.16" r="11.43" transform="translate(-125.68 43.12) rotate(-10.9)"/>
              <path class="cls-25" d="M181.56,703.25c-5.57,2.89-9.93,7.81-12.1,13.77h-29.38c0-12.72,10.31-23.03,23.03-23.03,7.55,0,14.26,3.64,18.45,9.25Z"/>
            </g>
            <g>
              <circle class="cls-11" cx="194.46" cy="675.8" r="12.78" transform="translate(-457.88 413.18) rotate(-52.02)"/>
              <path class="cls-11" d="M220.21,717.03h-51.5c0-3.38.65-6.62,1.85-9.58,2.34-5.84,6.75-10.62,12.33-13.42,3.48-1.76,7.41-2.74,11.58-2.74s8.09.99,11.57,2.74c5.58,2.81,9.99,7.59,12.33,13.42,1.19,2.96,1.85,6.2,1.85,9.58Z"/>
            </g>
          </g>
          <text transform="translate(163.38 760.25)"><tspan class="cls-20"><tspan x="0" y="0">사용자</tspan></tspan><tspan class="cls-27"><tspan x="-6.43" y="24">(정보주체)</tspan></tspan></text>
        </g>
        <text class="cls-17" transform="translate(430.29 629.23)"><tspan x="0" y="0">One-S</tspan><tspan class="cls-43" x="66.08" y="0">t</tspan><tspan x="74.1" y="0">op 서비스</tspan></text>
        <text class="cls-21" transform="translate(438.62 681.32)"><tspan x="0" y="0">청년수당 서비스 신청</tspan></text>
        <g>
          <circle class="cls-45" cx="422.03" cy="674.08" r="10.72"/>
          <path class="cls-16" d="M423.84,679.68h-1.84v-10.19h-.07l-2.86,1.88v-1.75l2.98-1.96h1.79v12.02Z"/>
        </g>
        <text class="cls-21" transform="translate(437.62 767.05)"><tspan x="0" y="0">청년수당 서비스 제공</tspan></text>
        <g>
          <circle class="cls-45" cx="422.03" cy="759.81" r="10.72"/>
          <path class="cls-16" d="M417.98,764.57l4.18-4.21c.5-.52.89-.94,1.16-1.26.27-.32.47-.64.61-.95.14-.31.2-.64.2-.98,0-.38-.1-.72-.29-1.01-.19-.29-.46-.52-.8-.68-.34-.16-.72-.24-1.14-.24s-.82.09-1.15.26c-.33.17-.58.42-.76.75-.18.32-.27.7-.27,1.12h-1.73c0-.72.17-1.36.51-1.91s.81-.98,1.41-1.29c.6-.3,1.28-.46,2.05-.46s1.43.15,2.03.44,1.06.7,1.39,1.22c.33.52.5,1.1.5,1.74,0,.46-.09.9-.26,1.33s-.46.9-.87,1.41-1,1.15-1.76,1.9l-2.45,2.48v.09h5.54v1.57h-8.08v-1.33Z"/>
        </g>
        <g>
          <rect class="cls-11" x="692.52" y="501.94" width="384.89" height="45.96" rx="12" ry="12"/>
          <text class="cls-17" transform="translate(763.26 532.16)"><tspan x="0" y="0">공공 마이데이터 서비스 연계</tspan></text>
        </g>
        <circle class="cls-41" cx="1620.35" cy="716.65" r="111.87"/>
        <circle class="cls-41" cx="833.28" cy="716.65" r="111.87"/>
        <rect class="cls-41" x="830.68" y="604.78" width="789.67" height="223.73"/>
        <circle class="cls-16" cx="1338.19" cy="716.65" r="101.09"/>
        <circle class="cls-16" cx="1620.23" cy="716.65" r="101.09"/>
        <g>
          <g>
            <line class="cls-2" x1="962.73" y1="697.03" x2="964.73" y2="697.03"/>
            <line class="cls-1" x1="968.71" y1="697.03" x2="1213.94" y2="697.03"/>
            <line class="cls-2" x1="1215.93" y1="697.03" x2="1217.93" y2="697.03"/>
            <polygon class="cls-26" points="1212.75 701.43 1217.16 697.03 1212.75 692.62 1216.49 692.62 1220.9 697.03 1216.49 701.43 1212.75 701.43"/>
          </g>
          <g>
            <line class="cls-2" x1="1220.9" y1="719.57" x2="1218.9" y2="719.57"/>
            <line class="cls-1" x1="1214.91" y1="719.57" x2="969.69" y2="719.57"/>
            <line class="cls-2" x1="967.7" y1="719.57" x2="965.7" y2="719.57"/>
            <polygon class="cls-26" points="970.88 715.16 966.47 719.57 970.88 723.98 967.13 723.98 962.73 719.57 967.13 715.16 970.88 715.16"/>
          </g>
        </g>
        <g>
          <g>
            <line class="cls-4" x1="343.67" y1="704.6" x2="345.67" y2="704.6"/>
            <line class="cls-6" x1="349.64" y1="704.6" x2="672.53" y2="704.6"/>
            <line class="cls-4" x1="674.51" y1="704.6" x2="676.51" y2="704.6"/>
            <polygon class="cls-45" points="671.33 709.01 675.74 704.6 671.33 700.2 675.07 700.2 679.48 704.6 675.07 709.01 671.33 709.01"/>
          </g>
          <g>
            <line class="cls-4" x1="679.48" y1="727.15" x2="677.48" y2="727.15"/>
            <line class="cls-6" x1="673.52" y1="727.15" x2="350.63" y2="727.15"/>
            <line class="cls-4" x1="348.64" y1="727.15" x2="346.64" y2="727.15"/>
            <polygon class="cls-45" points="351.82 722.74 347.41 727.15 351.82 731.55 348.08 731.55 343.67 727.15 348.08 722.74 351.82 722.74"/>
          </g>
        </g>
        <path class="cls-16" d="M1490.24,721.32l-25.17,14.53c-1.05.61-2.37-.15-2.37-1.37v-29.07c0-1.21,1.31-1.97,2.37-1.37l25.17,14.53c1.05.61,1.05,2.13,0,2.73Z"/>
        <g>
          <polygon class="cls-31" points="1279.41 708.3 1288.47 724.38 1288.47 756.81 1279.41 755.02 1279.41 708.3"/>
          <polygon class="cls-31" points="1298.81 723.11 1312.6 697.19 1312.6 761.91 1298.81 759.23 1298.81 723.11"/>
          <path class="cls-34" d="M1298.81,698.98l9.32-3.32-14.68,29.62-11.11-20.55,7.4-2.43v-23.66c0-.49.3-.94.76-1.13l8.31-3.42v24.89Z"/>
          <path class="cls-31" d="M1321.29,694.68l-22.48-12.99v-7.61h0c1.17-.34,2.43-.18,3.49.43l27.77,15.97c.34.19.54.55.54.94v37.09c0,.39-.21.75-.54.94l-14.68,8.59v-9.57l5.93-3.72c.39-.25.63-.68.63-1.14l-.18-28.1c0-.34-.18-.65-.47-.82Z"/>
          <g>
            <path class="cls-34" d="M1339.32,700.52h5.25v-3.29h2.42v3.29h7.36v2.09h-15.03v-2.09ZM1351.57,692.77c0,1.59-.04,2.93-.13,4.04-.09,1.11-.25,2.15-.48,3.11h-2.36c.23-1.12.38-2.13.46-3.05.08-.92.11-1.58.11-1.97h-7.67v-2.13h10.06ZM1351.57,707.02c0,.53-.12,1.04-.35,1.52-.24.48-.57.9-1,1.26-.43.36-.94.63-1.52.82-.58.19-1.2.29-1.84.29s-1.26-.09-1.85-.29c-.58-.19-1.09-.46-1.52-.82-.43-.36-.76-.77-1-1.26-.24-.48-.35-.99-.35-1.52s.12-1.04.35-1.52c.23-.48.57-.9,1-1.26.43-.35.94-.63,1.52-.82.58-.19,1.2-.29,1.85-.29s1.26.1,1.84.29c.58.19,1.09.46,1.52.82.43.36.76.77,1,1.26.23.48.35.99.35,1.52ZM1349.17,707c0-.51-.22-.93-.67-1.26-.44-.34-1-.5-1.66-.5s-1.21.17-1.66.5c-.44.34-.67.76-.67,1.26s.22.93.67,1.27c.44.34,1,.5,1.66.5s1.21-.17,1.66-.5c.44-.34.67-.76.67-1.27Z"/>
            <path class="cls-34" d="M1354.67,700.52h5.25v-3.29h2.42v3.29h7.36v2.09h-15.03v-2.09ZM1366.92,692.77c0,1.59-.04,2.93-.13,4.04-.09,1.11-.25,2.15-.48,3.11h-2.36c.23-1.12.38-2.13.46-3.05.08-.92.11-1.58.11-1.97h-7.67v-2.13h10.06ZM1366.92,707.02c0,.53-.12,1.04-.35,1.52-.24.48-.57.9-1,1.26-.43.36-.94.63-1.52.82-.58.19-1.2.29-1.84.29s-1.26-.09-1.85-.29c-.58-.19-1.09-.46-1.52-.82-.43-.36-.76-.77-1-1.26-.24-.48-.35-.99-.35-1.52s.12-1.04.35-1.52c.23-.48.57-.9,1-1.26.43-.35.94-.63,1.52-.82.58-.19,1.2-.29,1.85-.29s1.26.1,1.84.29c.58.19,1.09.46,1.52.82.43.36.76.77,1,1.26.23.48.35.99.35,1.52ZM1364.52,707c0-.51-.22-.93-.67-1.26-.44-.34-1-.5-1.66-.5s-1.21.17-1.66.5c-.44.34-.67.76-.67,1.26s.22.93.67,1.27c.44.34,1,.5,1.66.5s1.21-.17,1.66-.5c.44-.34.67-.76.67-1.27Z"/>
            <path class="cls-34" d="M1347.86,726.52h-7.95v-10.46h7.95v10.46ZM1345.52,724.37v-6.16h-3.27v6.16h3.27ZM1354.52,722.39h-2.53v9.72h-2.4v-18.36h2.4v6.26h2.53v2.38Z"/>
            <path class="cls-34" d="M1364.16,721.23c0,.67-.12,1.31-.35,1.92-.24.61-.56,1.14-.98,1.6-.43.44-.94.79-1.51,1.04s-1.19.37-1.84.37-1.26-.12-1.84-.37-1.08-.59-1.51-1.04c-.42-.46-.75-.99-.98-1.6-.24-.61-.35-1.25-.35-1.92s.12-1.31.35-1.92c.23-.61.56-1.14.98-1.6.43-.44.94-.79,1.51-1.04s1.19-.37,1.84-.37,1.26.12,1.84.37,1.08.59,1.51,1.04c.42.46.74.99.98,1.6.23.61.35,1.25.35,1.92ZM1361.75,721.23c0-.79-.22-1.45-.65-1.98-.43-.53-.97-.8-1.62-.8s-1.19.27-1.62.8c-.43.53-.65,1.19-.65,1.98s.22,1.45.65,1.98c.43.53.97.8,1.62.8s1.19-.27,1.62-.8c.43-.53.65-1.19.65-1.98ZM1368.02,732.11h-2.4v-18.36h2.4v18.36Z"/>
            <path class="cls-34" d="M1377.14,726.41h-7.15v-10.35h6.68v2.17h-4.34v6.01h4.81v2.17ZM1374.89,720.07h3.14v-5.94h2.21v16.8h-2.21v-8.73h-3.14v-2.13ZM1383.55,732.11h-2.26v-18.36h2.26v18.36Z"/>
            <path class="cls-34" d="M1394.39,721.23c0,.67-.12,1.31-.35,1.92-.24.61-.56,1.14-.98,1.6-.43.44-.94.79-1.51,1.04s-1.19.37-1.84.37-1.26-.12-1.84-.37-1.08-.59-1.51-1.04c-.42-.46-.75-.99-.98-1.6-.24-.61-.35-1.25-.35-1.92s.12-1.31.35-1.92c.23-.61.56-1.14.98-1.6.43-.44.94-.79,1.51-1.04s1.19-.37,1.84-.37,1.26.12,1.84.37,1.08.59,1.51,1.04c.42.46.74.99.98,1.6.23.61.35,1.25.35,1.92ZM1391.98,721.23c0-.79-.22-1.45-.65-1.98-.43-.53-.97-.8-1.62-.8s-1.19.27-1.62.8c-.43.53-.65,1.19-.65,1.98s.22,1.45.65,1.98c.43.53.97.8,1.62.8s1.19-.27,1.62-.8c.43-.53.65-1.19.65-1.98ZM1398.25,732.11h-2.4v-18.36h2.4v18.36Z"/>
            <path class="cls-34" d="M1409.19,726.94h-8.98v-11.03h8.07v2.17h-5.69v2.28h4.66v2.13h-4.66v2.3h6.6v2.15ZM1412.92,732.11h-2.4v-9.65h-2.82v-2.15h2.82v-6.56h2.4v18.36Z"/>
          </g>
        </g>
        <g>
          <circle class="cls-16" cx="833.28" cy="717.17" r="101.09"/>
          <g>
            <g>
              <g>
                <path class="cls-13" d="M830.68,714.86c-1.39.42-2.43.44-3.18.44-2.19,0-4.73-1.3-4.73-4.97s2.18-5.05,5.2-5.05c.54,0,1.69.07,2.49.43l-.18,2.11c-.68-.47-1.49-.62-2.01-.62-1.78,0-3.24.87-3.24,3.14,0,1.9,1.15,3.05,2.75,3.05.3,0,.58-.06.78-.17v-1.92h-1.28v-1.83h3.41v5.39Z"/>
                <path class="cls-13" d="M834.54,711.48l-3.05-6.04h2.53l1.62,3.88,1.59-3.88h2.53l-3.02,6.04v3.65h-2.2v-3.65Z"/>
                <path class="cls-13" d="M840.48,705.45h5.8v1.83h-3.61v2h3.41v1.83h-3.41v2.19h3.74v1.83h-5.93v-9.69Z"/>
                <path class="cls-13" d="M849.58,710.29c0-1.68.53-3.09,1.86-3.09s1.86,1.41,1.86,3.09-.53,3.1-1.86,3.1-1.86-1.5-1.86-3.1ZM847.32,710.29c0,3.08,1.44,5.01,4.13,5.01s4.13-1.93,4.13-5.01-1.41-5.01-4.13-5.01-4.13,1.9-4.13,5.01Z"/>
                <path class="cls-13" d="M856.72,705.45h2.8l2.78,6.58h.02l-.04-6.58h2.01v9.69h-2.73l-2.88-6.62h-.02l.07,6.62h-2.02v-9.69Z"/>
                <path class="cls-13" d="M873.35,714.86c-1.39.42-2.43.44-3.18.44-2.19,0-4.73-1.3-4.73-4.97s2.18-5.05,5.2-5.05c.54,0,1.69.07,2.49.43l-.18,2.11c-.68-.47-1.49-.62-2.01-.62-1.78,0-3.24.87-3.24,3.14,0,1.9,1.14,3.05,2.75,3.05.29,0,.58-.06.78-.17v-1.92h-1.29v-1.83h3.41v5.38Z"/>
                <path class="cls-13" d="M874.84,705.45h2.8l2.78,6.58h.02l-.04-6.58h2v9.69h-2.73l-2.88-6.62h-.02l.07,6.62h-2.02v-9.69Z"/>
                <path class="cls-13" d="M888.64,711.23h-2.06l1.06-3.79h.02l.98,3.79ZM883.19,715.13h2.23l.65-2.07h3.09l.61,2.07h2.41l-3.17-9.69h-2.69l-3.12,9.69Z"/>
                <path class="cls-13" d="M892.86,705.45h3.46l1.74,6.44h.02l1.83-6.44h3.33v9.69s-2.15,0-2.15,0l.04-7.44h-.02l-2.1,7.44h-2.02l-2.01-7.44h-.02l.05,7.44h-2.15v-9.69Z"/>
              </g>
              <g>
                <g>
                  <polygon class="cls-13" points="876.89 686.18 869.57 686.18 869.57 679.32 866.62 679.32 866.62 688.5 876.89 688.5 876.89 686.18"/>
                  <polygon class="cls-13" points="836.33 689.92 839.28 689.92 839.28 679.03 836.33 679.03 836.33 681.13 833.16 681.13 833.16 683.45 836.33 683.45 836.33 684.97 833.16 684.97 833.16 687.3 836.33 687.3 836.33 689.92"/>
                  <polygon class="cls-13" points="896.95 696.16 896.95 690.54 901.93 690.54 901.93 688.22 891.3 688.22 891.3 682.04 901.93 682.04 901.93 679.72 888.36 679.72 888.36 690.54 894 690.54 894 696.16 886.93 696.16 886.93 698.48 903.36 698.48 903.36 696.16 896.95 696.16"/>
                  <polygon class="cls-13" points="881.58 679.03 878.63 679.03 878.63 689.59 881.58 689.59 881.58 684.67 884.16 684.67 884.16 682.35 881.58 682.35 881.58 679.03"/>
                  <path class="cls-13" d="M869.93,690.89v8.5h11.65v-8.5h-11.65ZM872.88,697.07v-3.85h5.75v3.85h-5.75Z"/>
                  <path class="cls-13" d="M833.05,689.64c-3.27,0-5.93,2.4-5.93,5.37s2.65,5.37,5.93,5.37,5.93-2.4,5.93-5.37-2.65-5.37-5.93-5.37ZM833.05,697.89c-1.59,0-2.87-1.29-2.87-2.88s1.28-2.88,2.87-2.88,2.87,1.29,2.87,2.88-1.28,2.88-2.87,2.88Z"/>
                  <path class="cls-13" d="M853.67,689.64c-3.27,0-5.92,2.4-5.92,5.37s2.65,5.37,5.92,5.37,5.92-2.4,5.92-5.37-2.65-5.37-5.92-5.37ZM853.67,697.89c-1.58,0-2.87-1.29-2.87-2.88s1.28-2.88,2.87-2.88,2.87,1.29,2.87,2.88-1.28,2.88-2.87,2.88Z"/>
                  <path class="cls-13" d="M831.75,684.18s.79-2.06.74-4.6h-9.73v2.38h6.17s.22,4.73-6.57,5.73l1.18,2.04c2.15-.18,6.48-1.27,8.2-5.55Z"/>
                </g>
                <path class="cls-13" d="M854.09,689.12l1.2-1.98c-4.61-1.53-4.58-6.16-4.58-6.65v-1.06h-3.62v1.09c0,.43.18,5.42-4.52,7.19l1.26,1.9s3.28-.94,5.17-4.19c1.64,2.87,5.1,3.7,5.1,3.7Z"/>
                <polygon class="cls-13" points="860 679.03 857.05 679.03 857.05 689.92 860 689.92 860 684.67 862.58 684.67 862.58 682.35 860 682.35 860 679.03"/>
              </g>
            </g>
            <g>
              <path class="cls-10" d="M788.28,671.27c-8.64-.17-16.33,4.15-20.85,10.81.08.1.16.19.22.27.05.06.09.11.13.16.03,0,.05,0,.07.01.32.06.8.14,1.22.52.26.24.43.5.56.71.06.09.14.21.17.25.07.07.18.15.29.24.19.14.4.3.6.51.17.17.33.35.48.52.1.13.2.24.31.35.08.09.19.18.3.28.17.15.36.32.55.53.24.26.37.54.48.77.04.08.11.21.13.25h0c.17.19.33.4.48.59l.24.3c.04.05.14.14.24.22.18.16.41.35.61.61.15.2.28.39.4.58.09.14.17.26.25.38.19.26.31.53.41.75.05.12.1.24.15.3.04.06.13.15.23.25.16.16.35.36.53.62.18.27.29.55.37.77.03.09.07.18.1.24.03.02.07.05.11.07.22.15.57.38.81.77.13.22.22.44.3.63l.47.32c.77.52,1.09.25.72-.6l-4.33-9.87c-.37-.85-.22-.94.34-.2l6.46,8.54c.56.74.95.59.87-.33l-.91-10.71c-.08-.92.1-.96.39-.08l3.12,10.11c.3.88.68.86.86-.05l1.75-10.43c.18-.91.36-.9.4.03l.45,10.67c.04.93.45,1.02.91.23l5.33-9.23c.46-.8.63-.73.36.16l-3.02,10.19c-.26.89.09,1.11.79.51l8-6.94c.7-.61.83-.49.29.27l-4.6,6.45c.23,0,.47-.02.65-.12.37-.2.59-.71.98-.9.39-.18.89-.12,1.28-.29.39-.17.66-.63,1.05-.79.39-.16.81-.27,1.2-.42.43-.16.84-.41,1.26-.55.43-.14.89-.21,1.31-.34.42-.13.93.05,1.35-.07.45-.13.79-.61,1.23-.72.44-.11.91-.05,1.33-.14.45-.11.91-.09,1.33-.18.46-.1.86-.34,1.27-.42.08-.02.16-.02.25-.03-3.05-9.86-12.14-17.12-23.03-17.33Z"/>
              <path class="cls-14" d="M784.55,718.91s0-.05.02-.07c-.02-.03-.04-.07-.06-.1-.12-.21-.28-.49-.36-.85-.03-.14-.07-.3-.13-.46-.06-.18-.12-.39-.17-.62-.06-.29-.07-.56-.08-.78,0-.13,0-.27-.03-.34-.06-.23-.09-.45-.12-.65-.02-.16-.04-.32-.08-.45-.03-.11-.08-.24-.14-.39-.08-.19-.16-.4-.23-.65l-.06-.24-.21-.81c-.04-.13-.09-.28-.15-.43-.07-.18-.14-.37-.2-.59-.11-.37-.1-.72-.09-.98,0-.08,0-.17,0-.21-.05-.15-.1-.3-.17-.47-.07-.17-.14-.35-.2-.54-.02-.04-.08-.12-.13-.19-.14-.2-.34-.46-.46-.81-.03-.1-.1-.23-.17-.37-.09-.18-.2-.39-.28-.63-.07-.19-.14-.38-.22-.57l-.17-.44c-.16-.42-.13-.82-.11-1.09,0-.04,0-.08,0-.11-.04-.09-.1-.19-.16-.31-.1-.18-.22-.39-.31-.63-.02-.06-.1-.18-.18-.29-.12-.18-.27-.41-.39-.68-.1-.23-.16-.45-.22-.64-.05-.15-.09-.3-.13-.4-.08-.18-.15-.36-.21-.53-.07-.17-.13-.33-.2-.48l-.2-.45c-.09-.2-.18-.4-.27-.58-.03-.07-.12-.18-.2-.29-.13-.17-.29-.38-.43-.65-.15-.29-.22-.57-.28-.79-.02-.07-.04-.16-.06-.22-.03-.03-.08-.06-.11-.1-.21-.16-.49-.39-.69-.76-.2-.35-.26-.71-.3-.96-.01-.07-.03-.16-.04-.2-.13-.23-.22-.46-.29-.64-.04-.1-.07-.19-.11-.27-.03-.02-.08-.05-.11-.08-.23-.15-.54-.36-.78-.73-.17-.26-.27-.52-.35-.74-.04-.11-.09-.24-.13-.28-.05-.07-.14-.17-.24-.27-.15-.16-.32-.33-.48-.56-.18-.26-.29-.51-.38-.72-.05-.11-.11-.24-.14-.29-.13-.18-.24-.35-.34-.5-.1-.15-.19-.3-.28-.41-.05-.06-.15-.15-.26-.24-.16-.14-.37-.32-.55-.55l-.25-.32c-.15-.19-.29-.36-.43-.53-.22-.26-.36-.53-.46-.75-.04-.08-.09-.18-.12-.22-.1-.11-.22-.22-.35-.33-.14-.13-.3-.27-.45-.43-.13-.14-.25-.28-.37-.41-.13-.15-.25-.3-.37-.41-.09-.09-.21-.18-.34-.28-.16-.12-.33-.25-.51-.42-.25-.24-.41-.49-.54-.7-.03-.04-.06-.08-.08-.12-.03,0-.05,0-.07-.01-.29-.05-.74-.13-1.12-.46-.07-.06-.14-.12-.2-.18-1.77,3.31-2.81,7.08-2.89,11.1-.24,12.64,9.09,23.23,21.33,24.86-.02-.08-.05-.17-.06-.26-.08-.44.01-.82.08-1.08Z"/>
              <path class="cls-37" d="M782.39,703.23c.04.1.11.22.18.36.11.2.24.42.34.69.16.43.13.83.12,1.11,0,.04,0,.1,0,.13l.13.33c.08.21.16.42.24.64.03.09.1.22.16.35.1.2.21.42.3.69,0-.02-.01-.03-.01-.03.02.03.08.12.13.19.15.2.35.48.47.85.04.13.1.28.16.43.08.21.16.42.23.65.12.38.1.74.09,1,0,.07,0,.17,0,.22.04.11.08.24.14.38.07.19.16.41.22.65l.22.84.06.24c.03.1.07.23.13.36.08.2.17.44.24.7.06.24.09.48.12.68.02.16.04.31.08.44.07.3.08.58.09.8,0,.13.01.27.03.35.03.13.08.27.12.43.06.19.12.41.18.64.01.04.06.12.09.17.12.21.29.51.37.89.09.44,0,.83-.07,1.09-.01.04-.02.08-.03.12.02.08.05.17.08.28.06.17.11.36.16.56.06,0,.12,0,.17,0,7.27.14,13.87-2.89,18.47-7.82-8.54-6.56-19.03-8.86-23.48-9.58.03.05.05.1.07.16Z"/>
              <path class="cls-24" d="M812.27,696.35c.03-1.87-.14-3.69-.51-5.44-.15.03-.31.05-.46.08-.42.08-.8.35-1.2.43-.41.08-.8.21-1.2.3-.44.1-.88.12-1.29.23-.42.11-.88.07-1.28.19-.41.12-.75.44-1.14.56-.43.14-.88.17-1.28.32-.41.15-.88.12-1.27.28-.39.16-.72.47-1.09.63-.41.17-.86.22-1.24.4-.42.2-.72.58-1.1.78-.39.2-.78.37-1.13.58-.39.23-.81.37-1.15.59-.38.24-.64.62-.97.85-.38.27-.66.62-.98.87-.37.3-.81.43-1.1.7-.29.26-.6.44-.85.64l-.55.88c-.11.42-.11.72-.29.47l-1.19,1.91c4.98,1.52,10.95,4.04,16.26,8.17,3.05-4.01,4.9-8.98,5.01-14.4Z"/>
            </g>
          </g>
          <g>
            <rect class="cls-11" x="763.2" y="734.06" width="140.16" height="31" rx="12" ry="12"/>
            <text class="cls-15" transform="translate(781.97 756.08)"><tspan x="0" y="0">청년구직수당</tspan></text>
          </g>
        </g>
        <rect class="cls-11" x="1551.86" y="752.34" width="140.16" height="31" rx="12" ry="12"/>
        <text class="cls-15" transform="translate(1566.12 774.35)"><tspan x="0" y="0">경상남도 PDS</tspan></text>
        <g>
          <g>
            <g>
              <ellipse class="cls-31" cx="1622.36" cy="729.32" rx="30.38" ry="6.31"/>
              <rect class="cls-31" x="1591.98" y="715.64" width="60.76" height="14.09"/>
              <ellipse class="cls-32" cx="1622.36" cy="715.98" rx="30.38" ry="6.31"/>
            </g>
            <g>
              <ellipse class="cls-31" cx="1622.36" cy="713.55" rx="30.38" ry="6.31"/>
              <rect class="cls-31" x="1591.98" y="699.87" width="60.76" height="14.09"/>
              <ellipse class="cls-32" cx="1622.36" cy="700.21" rx="30.38" ry="6.31"/>
            </g>
            <g>
              <ellipse class="cls-31" cx="1622.36" cy="697.77" rx="30.38" ry="6.31"/>
              <rect class="cls-31" x="1591.98" y="684.09" width="60.76" height="14.09"/>
              <ellipse class="cls-32" cx="1622.36" cy="684.43" rx="30.38" ry="6.31"/>
            </g>
            <circle class="cls-32" cx="1601.68" cy="694.8" r="2.03"/>
            <circle class="cls-32" cx="1601.68" cy="710.79" r="2.03" transform="translate(642.36 2177.18) rotate(-80.74)"/>
            <circle class="cls-32" cx="1601.68" cy="726.78" r="2.03"/>
          </g>
          <g>
            <path class="cls-8" d="M1658.47,712.3v8.02c0,3.67-.76,7.09-2.25,10.15-1.23,2.53-2.97,4.83-5.17,6.85-3.86,3.53-8.1,5.24-9.75,5.81-.29.1-.59.15-.89.15s-.6-.05-.89-.15c-1.64-.57-5.89-2.28-9.75-5.81-2.2-2.01-3.94-4.32-5.17-6.85-1.49-3.06-2.25-6.47-2.25-10.15v-8.02c0-1.24.83-2.32,2.03-2.63,7.38-1.93,12.6-5.14,14.5-6.43.93-.63,2.13-.63,3.06,0,1.9,1.29,7.12,4.5,14.5,6.43h0c1.19.31,2.03,1.4,2.03,2.63Z"/>
            <path class="cls-16" d="M1644.81,719h-.63v-2.01c0-2.08-1.69-3.77-3.77-3.77s-3.77,1.69-3.77,3.77v2.01h-.63c-.96,0-1.73.78-1.73,1.73v8.79c0,.96.77,1.73,1.73,1.73h8.79c.96,0,1.73-.78,1.73-1.73v-8.79c0-.96-.77-1.73-1.73-1.73ZM1641.32,725.77v1.21c0,.5-.4.9-.9.9s-.9-.4-.9-.9v-1.21c-.5-.31-.84-.86-.84-1.49,0-.96.78-1.74,1.74-1.74s1.74.78,1.74,1.74c0,.63-.34,1.19-.84,1.49ZM1642.45,719h-4.07v-2.01c0-1.12.91-2.03,2.03-2.03s2.03.91,2.03,2.03v2.01Z"/>
          </g>
        </g>
        <text class="cls-18" transform="translate(1567.71 666.06)"><tspan x="0" y="0">묶음정보 보존</tspan></text>
        <text transform="translate(1009.13 756.81)"><tspan class="cls-12"><tspan x="0" y="0">묶음정보로 제공</tspan></tspan><tspan class="cls-23"><tspan x="0" y="24">(구직수당 신청에 필요한 </tspan></tspan><tspan class="cls-23"><tspan x="0" y="48">필수 정보만 모아서 제공)</tspan></tspan></text>
        <text class="cls-12" transform="translate(1009.13 677.03)"><tspan x="0" y="0">행정서류 요청</tspan></text>
      </g>
    </g>
  </g>
</svg>