<?xml version="1.0" encoding="UTF-8"?>
<svg id="_레이어_2" data-name="레이어 2" xmlns="http://www.w3.org/2000/svg" xmlns:xlink="http://www.w3.org/1999/xlink" viewBox="0 0 1475.82 721.76">
  <defs>
    <style>
      .cls-1 {
        fill: #fcffd7;
      }

      .cls-2, .cls-3 {
        fill: #125de6;
      }

      .cls-4, .cls-5, .cls-6, .cls-7, .cls-8, .cls-9, .cls-10, .cls-3, .cls-11 {
        font-size: 22px;
      }

      .cls-4, .cls-6, .cls-9, .cls-10, .cls-12, .cls-3 {
        font-family: PretendardVariable-Bold, 'Pretendard Variable';
        font-variation-settings: 'wght' 700;
        font-weight: 700;
      }

      .cls-4, .cls-13, .cls-14 {
        fill: #2e3b89;
      }

      .cls-15, .cls-16, .cls-17 {
        stroke: #4d4d4d;
      }

      .cls-15, .cls-16, .cls-17, .cls-18, .cls-19, .cls-20, .cls-14, .cls-21 {
        stroke-miterlimit: 10;
        stroke-width: 2px;
      }

      .cls-15, .cls-16, .cls-17, .cls-18, .cls-19, .cls-20, .cls-21 {
        fill: none;
      }

      .cls-15, .cls-16, .cls-17, .cls-18, .cls-19, .cls-21 {
        stroke-linecap: round;
      }

      .cls-5, .cls-22, .cls-23 {
        font-family: PretendardVariable-Medium, 'Pretendard Variable';
        font-variation-settings: 'wght' 500;
        font-weight: 500;
      }

      .cls-5, .cls-23, .cls-24 {
        fill: #d62532;
      }

      .cls-25 {
        fill: #417dea;
      }

      .cls-26, .cls-7 {
        fill: #4d4d4d;
      }

      .cls-27, .cls-8, .cls-10, .cls-12 {
        fill: #fff;
      }

      .cls-16 {
        stroke-dasharray: 4 4;
      }

      .cls-28 {
        letter-spacing: -.04em;
      }

      .cls-7, .cls-29, .cls-8, .cls-11 {
        font-family: PretendardVariable-SemiBold, 'Pretendard Variable';
        font-variation-settings: 'wght' 600;
        font-weight: 600;
      }

      .cls-30 {
        fill: #d7eaff;
      }

      .cls-22 {
        font-size: 18px;
      }

      .cls-31 {
        fill: #e8eaac;
      }

      .cls-32 {
        fill: #f5faff;
      }

      .cls-33 {
        fill: #2679e3;
      }

      .cls-34 {
        fill: #7aadff;
      }

      .cls-35 {
        fill: #0b1199;
      }

      .cls-17 {
        stroke-dasharray: 3.98 3.98;
      }

      .cls-29 {
        font-size: 24px;
      }

      .cls-18 {
        stroke-dasharray: 3.98 3.98;
      }

      .cls-18, .cls-19, .cls-21 {
        stroke: #d62532;
      }

      .cls-9 {
        fill: #5ad0ff;
      }

      .cls-36 {
        letter-spacing: -.04em;
      }

      .cls-37 {
        fill: #eef5ff;
      }

      .cls-38 {
        fill: #eee;
      }

      .cls-23, .cls-12 {
        font-size: 20px;
      }

      .cls-39 {
        letter-spacing: 0em;
      }

      .cls-20 {
        stroke: #247ce0;
        stroke-dasharray: 4 4;
      }

      .cls-40 {
        fill: url(#_무제_그라디언트_20);
      }

      .cls-41 {
        fill: #f7f7f7;
      }

      .cls-14 {
        stroke: #2e3b89;
      }

      .cls-42 {
        letter-spacing: -.01em;
      }

      .cls-21 {
        stroke-dasharray: 4.05 4.05;
      }
    </style>
    <linearGradient id="_무제_그라디언트_20" data-name="무제 그라디언트 20" x1="1253.21" y1="185.94" x2="1253.21" y2="336.75" gradientUnits="userSpaceOnUse">
      <stop offset="0" stop-color="#125de6" stop-opacity=".1"/>
      <stop offset="1" stop-color="#125de6" stop-opacity=".7"/>
    </linearGradient>
  </defs>
  <g id="_레이어_1-2" data-name="레이어 1">
    <rect class="cls-20" x="384.47" y="355.74" width="1090.35" height="365.02" rx="12" ry="12"/>
    <g>
      <circle class="cls-41" cx="111.87" cy="111.87" r="111.87"/>
      <g>
        <g>
          <circle class="cls-25" cx="143.26" cy="75.39" r="11.42" transform="translate(-11.35 123.39) rotate(-45)"/>
          <path class="cls-25" d="M166.28,112.24h-29.37c-2.17-5.96-6.53-10.88-12.1-13.77,4.2-5.62,10.9-9.25,18.45-9.25,12.71,0,23.02,10.31,23.02,23.02Z"/>
        </g>
        <g>
          <circle class="cls-25" cx="80.71" cy="75.38" r="11.43" transform="translate(-12.8 16.62) rotate(-10.9)"/>
          <path class="cls-25" d="M99.16,98.47c-5.57,2.89-9.93,7.81-12.1,13.77h-29.38c0-12.72,10.31-23.03,23.03-23.03,7.55,0,14.26,3.64,18.45,9.25Z"/>
        </g>
        <g>
          <circle class="cls-2" cx="112.07" cy="71.02" r="12.78" transform="translate(-12.88 115.65) rotate(-52.02)"/>
          <path class="cls-2" d="M137.82,112.24h-51.5c0-3.38.65-6.62,1.85-9.58,2.34-5.84,6.75-10.62,12.33-13.42,3.48-1.76,7.41-2.74,11.58-2.74s8.09.99,11.57,2.74c5.58,2.81,9.99,7.59,12.33,13.42,1.19,2.96,1.85,6.2,1.85,9.58Z"/>
        </g>
      </g>
      <text transform="translate(80.99 155.46)"><tspan class="cls-29"><tspan x="0" y="0">사용자</tspan></tspan><tspan class="cls-22"><tspan x="-6.43" y="24">(정보주체)</tspan></tspan></text>
    </g>
    <g>
      <text class="cls-7" transform="translate(305.6 76.54)"><tspan x="0" y="0">서비스 신청</tspan></text>
      <g>
        <circle class="cls-26" cx="289.01" cy="69.3" r="10.72"/>
        <path class="cls-27" d="M290.83,74.9h-1.84v-10.19h-.07l-2.86,1.88v-1.75l2.98-1.96h1.79v12.02Z"/>
      </g>
    </g>
    <g>
      <text class="cls-7" transform="translate(305.1 162.26)"><tspan x="0" y="0">서비스 제공</tspan></text>
      <g>
        <circle class="cls-26" cx="289.51" cy="155.03" r="10.72"/>
        <path class="cls-27" d="M285.47,159.79l4.18-4.21c.5-.52.89-.94,1.16-1.26.27-.32.47-.64.61-.95.14-.31.2-.64.2-.98,0-.38-.1-.72-.29-1.01-.19-.29-.46-.52-.8-.68-.34-.16-.72-.24-1.14-.24s-.82.09-1.15.26c-.33.17-.58.42-.76.75-.18.32-.27.7-.27,1.12h-1.73c0-.72.17-1.36.51-1.91s.81-.98,1.41-1.29c.6-.3,1.28-.46,2.05-.46s1.43.15,2.03.44,1.06.7,1.39,1.22c.33.52.5,1.1.5,1.74,0,.46-.09.9-.26,1.33s-.46.9-.87,1.41-1,1.15-1.76,1.9l-2.45,2.48v.09h5.54v1.57h-8.08v-1.33Z"/>
      </g>
    </g>
    <circle class="cls-38" cx="1362.96" cy="111.87" r="111.87"/>
    <circle class="cls-38" cx="568.89" cy="111.87" r="111.87"/>
    <rect class="cls-38" x="568.89" width="799.84" height="223.73"/>
    <circle class="cls-27" cx="1080.8" cy="111.87" r="101.09"/>
    <circle class="cls-27" cx="1362.83" cy="111.87" r="101.09"/>
    <g>
      <g>
        <line class="cls-15" x1="729.87" y1="92.24" x2="731.87" y2="92.24"/>
        <line class="cls-16" x1="735.87" y1="92.24" x2="949.67" y2="92.24"/>
        <line class="cls-15" x1="951.67" y1="92.24" x2="953.67" y2="92.24"/>
        <polygon class="cls-26" points="948.49 96.65 952.9 92.24 948.49 87.84 952.23 87.84 956.64 92.24 952.23 96.65 948.49 96.65"/>
      </g>
      <g>
        <line class="cls-15" x1="956.64" y1="114.79" x2="954.64" y2="114.79"/>
        <line class="cls-16" x1="950.64" y1="114.79" x2="736.84" y2="114.79"/>
        <line class="cls-15" x1="734.84" y1="114.79" x2="732.84" y2="114.79"/>
        <polygon class="cls-26" points="738.02 110.38 733.61 114.79 738.02 119.19 734.28 119.19 729.87 114.79 734.28 110.38 738.02 110.38"/>
      </g>
    </g>
    <g>
      <g>
        <line class="cls-15" x1="245.17" y1="99.82" x2="247.17" y2="99.82"/>
        <line class="cls-17" x1="251.14" y1="99.82" x2="432.07" y2="99.82"/>
        <line class="cls-15" x1="434.05" y1="99.82" x2="436.05" y2="99.82"/>
        <polygon class="cls-26" points="430.87 104.23 435.28 99.82 430.87 95.41 434.62 95.41 439.02 99.82 434.62 104.23 430.87 104.23"/>
      </g>
      <g>
        <line class="cls-15" x1="439.02" y1="122.36" x2="437.02" y2="122.36"/>
        <line class="cls-17" x1="433.05" y1="122.36" x2="252.13" y2="122.36"/>
        <line class="cls-15" x1="250.14" y1="122.36" x2="248.14" y2="122.36"/>
        <polygon class="cls-26" points="253.32 117.96 248.91 122.36 253.32 126.77 249.58 126.77 245.17 122.36 249.58 117.96 253.32 117.96"/>
      </g>
    </g>
    <g>
      <line class="cls-19" x1="822.96" y1="540.93" x2="824.96" y2="540.93"/>
      <line class="cls-21" x1="829.01" y1="540.93" x2="1037.43" y2="540.93"/>
      <line class="cls-19" x1="1039.46" y1="540.93" x2="1041.46" y2="540.93"/>
      <polygon class="cls-24" points="826.95 544.32 823.55 540.93 826.95 537.54 824.07 537.54 820.68 540.93 824.07 544.32 826.95 544.32"/>
      <polygon class="cls-24" points="1036.28 545.34 1040.69 540.93 1036.28 536.52 1040.02 536.52 1044.43 540.93 1040.02 545.34 1036.28 545.34"/>
    </g>
    <path class="cls-27" d="M1232.85,116.54l-25.17,14.53c-1.05.61-2.37-.15-2.37-1.37v-29.07c0-1.21,1.31-1.97,2.37-1.37l25.17,14.53c1.05.61,1.05,2.13,0,2.73Z"/>
    <g>
      <polygon class="cls-33" points="1012.18 102.96 1021.76 119.97 1021.76 154.26 1012.18 152.37 1012.18 102.96"/>
      <polygon class="cls-33" points="1032.7 118.62 1047.28 91.22 1047.28 159.66 1032.7 156.83 1032.7 118.62"/>
      <path class="cls-35" d="M1032.7,93.11l9.86-3.51-15.53,31.32-11.75-21.74,7.83-2.57v-25.02c0-.52.32-.99.8-1.19l8.79-3.62v26.33Z"/>
      <path class="cls-33" d="M1056.47,88.57l-23.77-13.74v-8.05h0c1.24-.36,2.57-.19,3.69.45l29.36,16.89c.36.21.58.58.58,1v39.22c0,.41-.22.79-.57,1l-15.53,9.08v-10.13l6.27-3.93c.42-.26.67-.72.66-1.21l-.19-29.72c0-.36-.19-.68-.5-.86Z"/>
      <g>
        <path class="cls-35" d="M1075.53,94.73h5.55v-3.48h2.55v3.48h7.79v2.21h-15.89v-2.21ZM1088.48,86.54c0,1.68-.05,3.1-.14,4.28-.09,1.17-.26,2.27-.5,3.29h-2.5c.24-1.18.4-2.26.48-3.23.08-.97.12-1.67.12-2.08h-8.11v-2.25h10.64ZM1088.48,101.61c0,.56-.12,1.1-.37,1.61-.25.51-.6.95-1.06,1.33-.46.38-.99.66-1.61.87-.62.2-1.27.3-1.95.3s-1.34-.1-1.95-.3c-.62-.2-1.15-.49-1.61-.87-.46-.38-.81-.82-1.06-1.33-.25-.51-.37-1.05-.37-1.61s.12-1.1.37-1.61c.25-.51.6-.95,1.06-1.33.46-.37.99-.66,1.61-.86.62-.2,1.27-.3,1.95-.3s1.33.1,1.95.3c.62.2,1.15.49,1.61.86.46.38.81.82,1.06,1.33.25.51.37,1.05.37,1.61ZM1085.95,101.59c0-.54-.23-.98-.7-1.34-.47-.36-1.05-.53-1.75-.53s-1.28.18-1.75.53c-.47.36-.7.8-.7,1.34s.23.98.7,1.34c.47.36,1.05.53,1.75.53s1.28-.18,1.75-.53c.47-.36.7-.8.7-1.34Z"/>
        <path class="cls-35" d="M1091.76,94.73h5.55v-3.48h2.55v3.48h7.79v2.21h-15.89v-2.21ZM1104.72,86.54c0,1.68-.05,3.1-.14,4.28-.09,1.17-.26,2.27-.5,3.29h-2.5c.24-1.18.4-2.26.48-3.23.08-.97.12-1.67.12-2.08h-8.11v-2.25h10.64ZM1104.72,101.61c0,.56-.12,1.1-.37,1.61-.25.51-.6.95-1.06,1.33-.46.38-.99.66-1.61.87-.62.2-1.27.3-1.95.3s-1.34-.1-1.95-.3c-.62-.2-1.15-.49-1.61-.87-.46-.38-.81-.82-1.06-1.33-.25-.51-.37-1.05-.37-1.61s.12-1.1.37-1.61c.25-.51.6-.95,1.06-1.33.46-.37.99-.66,1.61-.86.62-.2,1.27-.3,1.95-.3s1.33.1,1.95.3c.62.2,1.15.49,1.61.86.46.38.81.82,1.06,1.33.25.51.37,1.05.37,1.61ZM1102.19,101.59c0-.54-.23-.98-.7-1.34-.47-.36-1.05-.53-1.75-.53s-1.28.18-1.75.53c-.47.36-.7.8-.7,1.34s.23.98.7,1.34c.47.36,1.05.53,1.75.53s1.28-.18,1.75-.53c.47-.36.7-.8.7-1.34Z"/>
        <path class="cls-35" d="M1084.56,122.23h-8.41v-11.07h8.41v11.07ZM1082.09,119.96v-6.52h-3.46v6.52h3.46ZM1091.6,117.87h-2.68v10.28h-2.54v-19.42h2.54v6.62h2.68v2.51Z"/>
        <path class="cls-35" d="M1101.8,116.64c0,.71-.12,1.39-.37,2.03-.25.64-.59,1.21-1.04,1.69-.46.47-.99.84-1.6,1.1s-1.26.39-1.94.39-1.33-.13-1.94-.39-1.14-.63-1.6-1.1c-.44-.48-.79-1.05-1.04-1.69-.25-.64-.37-1.32-.37-2.03s.12-1.39.37-2.03c.25-.64.59-1.21,1.04-1.69.46-.47.99-.84,1.6-1.1s1.26-.39,1.94-.39,1.33.13,1.94.39,1.14.63,1.6,1.1c.44.48.79,1.05,1.04,1.69.25.64.37,1.32.37,2.03ZM1099.25,116.64c0-.83-.23-1.53-.68-2.09-.46-.56-1.03-.84-1.71-.84s-1.25.28-1.71.84c-.46.56-.68,1.26-.68,2.09s.23,1.53.68,2.09c.46.56,1.03.84,1.71.84s1.25-.28,1.71-.84c.46-.56.68-1.26.68-2.09ZM1105.89,128.15h-2.54v-19.42h2.54v19.42Z"/>
        <path class="cls-35" d="M1115.52,122.11h-7.56v-10.94h7.06v2.29h-4.59v6.36h5.09v2.29ZM1113.15,115.41h3.32v-6.28h2.33v17.77h-2.33v-9.23h-3.32v-2.25ZM1122.3,128.15h-2.39v-19.42h2.39v19.42Z"/>
        <path class="cls-35" d="M1133.77,116.64c0,.71-.12,1.39-.37,2.03-.25.64-.59,1.21-1.04,1.69-.46.47-.99.84-1.6,1.1s-1.26.39-1.94.39-1.33-.13-1.94-.39-1.14-.63-1.6-1.1c-.44-.48-.79-1.05-1.04-1.69-.25-.64-.37-1.32-.37-2.03s.12-1.39.37-2.03c.25-.64.59-1.21,1.04-1.69.46-.47.99-.84,1.6-1.1s1.26-.39,1.94-.39,1.33.13,1.94.39,1.14.63,1.6,1.1c.44.48.79,1.05,1.04,1.69.25.64.37,1.32.37,2.03ZM1131.22,116.64c0-.83-.23-1.53-.68-2.09-.46-.56-1.03-.84-1.71-.84s-1.25.28-1.71.84c-.46.56-.68,1.26-.68,2.09s.23,1.53.68,2.09c.46.56,1.03.84,1.71.84s1.25-.28,1.71-.84c.46-.56.68-1.26.68-2.09ZM1137.86,128.15h-2.54v-19.42h2.54v19.42Z"/>
        <path class="cls-35" d="M1149.42,122.68h-9.5v-11.67h8.53v2.29h-6.02v2.41h4.93v2.25h-4.93v2.43h6.98v2.27ZM1153.37,128.15h-2.54v-10.2h-2.98v-2.27h2.98v-6.94h2.54v19.42Z"/>
      </g>
    </g>
    <circle class="cls-27" cx="570.89" cy="112.38" r="101.09"/>
    <g>
      <g>
        <g>
          <ellipse class="cls-33" cx="1364.96" cy="115.54" rx="30.38" ry="6.31"/>
          <rect class="cls-33" x="1334.59" y="101.86" width="60.76" height="14.09"/>
          <ellipse class="cls-34" cx="1364.96" cy="102.2" rx="30.38" ry="6.31"/>
        </g>
        <g>
          <ellipse class="cls-33" cx="1364.96" cy="99.76" rx="30.38" ry="6.31"/>
          <rect class="cls-33" x="1334.59" y="86.08" width="60.76" height="14.09"/>
          <ellipse class="cls-34" cx="1364.96" cy="86.42" rx="30.38" ry="6.31"/>
        </g>
        <g>
          <ellipse class="cls-33" cx="1364.96" cy="83.99" rx="30.38" ry="6.31"/>
          <rect class="cls-33" x="1334.59" y="70.31" width="60.76" height="14.09"/>
          <ellipse class="cls-34" cx="1364.96" cy="70.65" rx="30.38" ry="6.31"/>
        </g>
        <circle class="cls-34" cx="1344.29" cy="81.02" r="2.03"/>
        <circle class="cls-34" cx="1344.29" cy="97.01" r="2.03" transform="translate(1032.17 1408.15) rotate(-80.74)"/>
        <circle class="cls-34" cx="1344.29" cy="113" r="2.03"/>
      </g>
      <g>
        <path class="cls-14" d="M1401.08,98.52v8.02c0,3.67-.76,7.09-2.25,10.15-1.23,2.53-2.97,4.83-5.17,6.85-3.86,3.53-8.1,5.24-9.75,5.81-.29.1-.59.15-.89.15s-.6-.05-.89-.15c-1.64-.57-5.89-2.28-9.75-5.81-2.2-2.01-3.94-4.32-5.17-6.85-1.49-3.06-2.25-6.47-2.25-10.15v-8.02c0-1.24.83-2.32,2.03-2.63,7.38-1.93,12.6-5.14,14.5-6.43.93-.63,2.13-.63,3.06,0,1.9,1.29,7.12,4.5,14.5,6.43h0c1.19.31,2.03,1.4,2.03,2.63Z"/>
        <path class="cls-27" d="M1387.42,105.21h-.63v-2.01c0-2.08-1.69-3.77-3.77-3.77s-3.77,1.69-3.77,3.77v2.01h-.63c-.96,0-1.73.78-1.73,1.73v8.79c0,.96.77,1.73,1.73,1.73h8.79c.96,0,1.73-.78,1.73-1.73v-8.79c0-.96-.77-1.73-1.73-1.73ZM1383.93,111.99v1.21c0,.5-.4.9-.9.9s-.9-.4-.9-.9v-1.21c-.5-.31-.84-.86-.84-1.49,0-.96.78-1.74,1.74-1.74s1.74.78,1.74,1.74c0,.63-.34,1.19-.84,1.49ZM1385.06,105.21h-4.07v-2.01c0-1.12.91-2.03,2.03-2.03s2.03.91,2.03,2.03v2.01Z"/>
      </g>
    </g>
    <text class="cls-3" transform="translate(782.22 152.02)"><tspan x="0" y="0">묶음정보 제공</tspan></text>
    <text class="cls-3" transform="translate(772.71 72.25)"><tspan x="0" y="0">마이데이터 요청</tspan></text>
    <text class="cls-3" transform="translate(534.79 170.51)"><tspan x="0" y="0">이용기관</tspan></text>
    <path class="cls-40" d="M1078.66,322.16l220.37-161.59h140.16l-3.69,190.18-368.27,4.99v-15.23c0-7.8,4.43-14.91,11.43-18.35Z"/>
    <g>
      <path class="cls-25" d="M540.14,71.16l30.53-16.59c.14-.07.3-.07.44,0l30.53,16.59c.42.23.25.86-.22.86h-61.05c-.47,0-.63-.63-.22-.86Z"/>
      <rect class="cls-25" x="527.09" y="128.96" width="87.58" height="6.32" rx=".29" ry=".29"/>
      <rect class="cls-25" x="532.01" y="119.42" width="77.75" height="6.32" rx=".29" ry=".29"/>
      <rect class="cls-25" x="538.57" y="75.24" width="64.64" height="6.32" rx=".53" ry=".53"/>
      <g>
        <path class="cls-2" d="M540.91,84.78c-.92,3.69-1.7,9.35-1.7,15.71s.78,12.02,1.7,15.71h4.12c.92-3.69,1.7-9.35,1.7-15.71s-.78-12.02-1.7-15.71h-4.12Z"/>
        <path class="cls-2" d="M554.87,84.78c-.92,3.69-1.7,9.35-1.7,15.71s.78,12.02,1.7,15.71h4.12c.92-3.69,1.7-9.35,1.7-15.71s-.78-12.02-1.7-15.71h-4.12Z"/>
        <path class="cls-2" d="M568.83,84.78c-.92,3.69-1.7,9.35-1.7,15.71s.78,12.02,1.7,15.71h4.12c.92-3.69,1.7-9.35,1.7-15.71s-.78-12.02-1.7-15.71h-4.12Z"/>
        <path class="cls-2" d="M582.79,84.78c-.92,3.69-1.7,9.35-1.7,15.71s.78,12.02,1.7,15.71h4.12c.92-3.69,1.7-9.35,1.7-15.71s-.78-12.02-1.7-15.71h-4.12Z"/>
        <path class="cls-2" d="M596.75,84.78c-.92,3.69-1.7,9.35-1.7,15.71s.78,12.02,1.7,15.71h4.12c.92-3.69,1.7-9.35,1.7-15.71s-.78-12.02-1.7-15.71h-4.12Z"/>
      </g>
    </g>
    <rect class="cls-2" x="1064.39" y="324.76" width="371.11" height="45.96" rx="12" ry="12"/>
    <text class="cls-10" transform="translate(1149.82 354.98)"><tspan x="0" y="0">SecuPDS 솔루션 구성</tspan></text>
    <text class="cls-6" transform="translate(1181.31 693.47)"><tspan x="0" y="0">보안저장소 서버</tspan></text>
    <rect class="cls-13" x="1064.39" y="400.32" width="371.11" height="255.87" rx="12.64" ry="12.64"/>
    <rect class="cls-27" x="1074.99" y="607.08" width="350.81" height="38.93" rx="12" ry="12"/>
    <text class="cls-4" transform="translate(1105.51 633.14)"><tspan x="0" y="0">Splen</tspan><tspan class="cls-39" x="58.66" y="0">t</tspan><tspan x="66.69" y="0">ec </tspan><tspan class="cls-28" x="96.8" y="0">W</tspan><tspan x="117.91" y="0">ORM S</tspan><tspan class="cls-39" x="186.73" y="0">t</tspan><tspan x="194.76" y="0">o</tspan><tspan class="cls-42" x="207.73" y="0">r</tspan><tspan x="216" y="0">age OS</tspan></text>
    <text class="cls-9" transform="translate(1169.26 588.44)"><tspan x="0" y="0">보안 스토리지 모듈</tspan></text>
    <g>
      <g>
        <ellipse class="cls-30" cx="1313.18" cy="539.66" rx="77.73" ry="11.04"/>
        <rect class="cls-30" x="1235.45" y="515.72" width="155.45" height="24.66"/>
        <ellipse class="cls-37" cx="1313.18" cy="516.31" rx="77.73" ry="11.04"/>
      </g>
      <g>
        <ellipse class="cls-30" cx="1313.18" cy="512.05" rx="77.73" ry="11.04"/>
        <rect class="cls-30" x="1235.45" y="488.11" width="155.45" height="24.66"/>
        <ellipse class="cls-37" cx="1313.18" cy="488.7" rx="77.73" ry="11.04"/>
      </g>
      <g>
        <ellipse class="cls-30" cx="1313.18" cy="484.44" rx="77.73" ry="11.04"/>
        <rect class="cls-30" x="1235.45" y="460.49" width="155.45" height="24.66"/>
        <ellipse class="cls-37" cx="1313.18" cy="461.09" rx="77.73" ry="11.04"/>
      </g>
    </g>
    <text class="cls-8" transform="translate(1256.62 438.83)"><tspan class="cls-36" x="0" y="0">W</tspan><tspan x="20.54" y="0">ORM 볼륨</tspan></text>
    <text class="cls-11" transform="translate(1272.53 504.69)"><tspan x="0" y="0">묶음 정보</tspan><tspan x="9.51" y="26.4">및 이력</tspan></text>
    <g>
      <g>
        <path class="cls-1" d="M1175.39,466.21l.42-16.01c0-.06.04-.1.05-.16h-59.44c-1.48,0-2.69,1.12-2.69,2.49v90.09c0,1.37,1.21,2.49,2.69,2.49h73.88c1.48,0,2.69-1.12,2.69-2.49v-77.97l-16.85,2.17c-.4.05-.76-.24-.75-.62Z"/>
        <path class="cls-31" d="M1177.26,450.04h-1.39c-.02.05-.05.1-.05.16l-.42,16.01c0,.38.35.67.75.62l16.85-2.17v-1.62l-15.74-13Z"/>
      </g>
      <text class="cls-11" transform="translate(1131.87 497.58)"><tspan x="0" y="0">PDS</tspan><tspan x="4.02" y="26.4">API</tspan></text>
    </g>
    <text class="cls-6" transform="translate(551.55 693.47)"><tspan x="0" y="0">PDS 관리 서버</tspan></text>
    <rect class="cls-13" x="429.61" y="400.32" width="371.11" height="255.87" rx="12.64" ry="12.64"/>
    <rect class="cls-27" x="440.75" y="607.08" width="350.81" height="38.93" rx="12" ry="12"/>
    <text class="cls-4" transform="translate(570.37 633.14)"><tspan x="0" y="0">Linux OS</tspan></text>
    <text class="cls-9" transform="translate(528.45 588.44)"><tspan x="0" y="0">PDS 운영/관리 모듈</tspan></text>
    <g>
      <g>
        <g>
          <path class="cls-1" d="M547.15,466.21l.42-16.01c0-.06.04-.1.05-.16h-59.44c-1.48,0-2.69,1.12-2.69,2.49v90.09c0,1.37,1.21,2.49,2.69,2.49h73.88c1.48,0,2.69-1.12,2.69-2.49v-77.97l-16.85,2.17c-.4.05-.76-.24-.75-.62Z"/>
          <path class="cls-31" d="M549.01,450.04h-1.39c-.02.05-.05.1-.05.16l-.42,16.01c0,.38.35.67.75.62l16.85-2.17v-1.62l-15.74-13Z"/>
        </g>
        <text class="cls-11" transform="translate(497.79 500.44)"><tspan x="0" y="0">REST</tspan><tspan x="9.8" y="26.4">API</tspan></text>
      </g>
      <g>
        <g>
          <rect class="cls-32" x="594.96" y="446.65" width="155.87" height="100.44" rx="9.19" ry="9.19"/>
          <rect class="cls-30" x="602.14" y="468.82" width="142.18" height="71.74" rx="5.36" ry="5.36"/>
          <circle class="cls-30" cx="606.7" cy="458.71" r="4.57"/>
          <circle class="cls-30" cx="622.14" cy="458.71" r="4.57"/>
        </g>
        <text class="cls-11" transform="translate(624.9 500.44)"><tspan x="0" y="0">보안저장소</tspan><tspan x="8.37" y="26.4">관리 SW</tspan></text>
      </g>
    </g>
    <g>
      <rect class="cls-24" x="869.45" y="463.83" width="123.7" height="31.79" rx="15.89" ry="15.89"/>
      <text transform="translate(894.15 488.51)"><tspan class="cls-10"><tspan x="0" y="0">묶음정보</tspan></tspan><tspan class="cls-23"><tspan x="-28.86" y="34">저장 · 인출 · 폐기</tspan></tspan></text>
    </g>
    <text class="cls-5" transform="translate(588.6 271.62)"><tspan x="0" y="0">묶음정보 저장/조회</tspan><tspan x="0" y="26">사용이력 조회</tspan><tspan x="0" y="52">유통정지 등 </tspan></text>
    <rect class="cls-2" x="1299.87" y="138.56" width="140.16" height="31" rx="12" ry="12"/>
    <text class="cls-12" transform="translate(1323.97 160.57)"><tspan x="0" y="0">Secu PDS</tspan></text>
    <g>
      <line class="cls-19" x1="550.56" y1="196.15" x2="550.56" y2="198.15"/>
      <line class="cls-18" x1="550.56" y1="202.13" x2="550.56" y2="454.7"/>
      <line class="cls-19" x1="550.56" y1="456.69" x2="550.56" y2="458.69"/>
      <polygon class="cls-24" points="547.17 200.14 550.56 196.75 553.95 200.14 553.95 197.26 550.56 193.87 547.17 197.26 547.17 200.14"/>
      <polygon class="cls-24" points="546.15 453.51 550.56 457.92 554.97 453.51 554.97 457.25 550.56 461.66 546.15 457.25 546.15 453.51"/>
    </g>
    <g>
      <path class="cls-24" d="M575.94,286.71c-.05-1.24-.19-2.46-.41-3.65-2.19-11.8-12.54-20.72-24.97-20.72-14.03,0-25.4,11.37-25.4,25.4s11.37,25.4,25.4,25.4c2.19,0,4.31-.28,6.34-.8.22-.06.44-.12.65-.18,10.63-3.03,18.41-12.82,18.41-24.43,0-.35,0-.69-.02-1.02Z"/>
      <path class="cls-27" d="M538.4,297.62c.45.46.89.94,1.35,1.38.31.29.59.26.91-.03.13-.12.25-.26.38-.38.08-.08.17-.15.25-.23.71.65,1.46,1.33,2.17,1.98.13.12.25.25.38.37.21.19.41.19.61,0,.38-.36.77-.71,1.13-1.08.4-.42.39-.71.02-1.15-.23-.27-1.56-1.62-1.76-1.85.4-.45.79-.88,1.2-1.33.23.21,1.5,1.45,1.67,1.62.27.27.54.28.82,0,.39-.39.78-.77,1.17-1.16.29-.28.25-.55-.03-.81-.46-.45-.93-.9-1.39-1.34-.18-.17-.36-.33-.53-.49,1.26-1.27,2.5-2.53,3.75-3.78.43-.43.86-.84,1.28-1.28.15-.16.28-.2.5-.13.7.22,1.41.43,2.12.62,3.45.88,6.78-1.3,7.96-4.17.35-.85.54-1.76.54-2.68,0-.89-.16-1.77-.48-2.6-.32-.82-.79-1.59-1.39-2.24-2.1-2.3-5.64-2.84-8.42-1.51-3.04,1.46-4.56,5-3.65,8.23.11.4.26.79.45,1.17.35.7.34.77-.21,1.31-3.35,3.34-6.7,6.69-10.04,10.03-.25.25-.5.51-.74.77-.24.25-.25.51-.01.76ZM551.55,281.63c.02-2.37,1.91-4.25,4.28-4.23,2.34.02,4.21,1.92,4.19,4.27-.01,2.33-1.92,4.22-4.26,4.21-2.33-.01-4.23-1.93-4.21-4.26Z"/>
    </g>
  </g>
</svg>