<svg width="188" height="31" viewBox="0 0 188 31" fill="none" xmlns="http://www.w3.org/2000/svg">
<path fill-rule="evenodd" clip-rule="evenodd" d="M37.6469 5.27619C37.6469 2.23647 32.4154 2.20672 32.4154 5.27619V29.3956H49.8305V25.4633H37.6469V5.27619Z" fill="#00A0E9"/>
<path fill-rule="evenodd" clip-rule="evenodd" d="M51.8884 29.3955H57.0207V5.27611C57.0207 2.23639 51.8884 2.2711 51.8884 5.27611V29.3955Z" fill="#00A0E9"/>
<path fill-rule="evenodd" clip-rule="evenodd" d="M69.7052 20.9507C69.7052 20.9507 65.52 8.34555 64.3795 5.03806C63.239 1.73057 58.2157 3.18844 59.381 6.66949C60.5464 10.1505 67.0076 29.4004 67.0076 29.4004H72.1399C72.1399 29.4004 78.5714 10.2398 79.826 6.63974C81.0806 3.03968 75.9185 1.85454 74.8375 5.16699C73.7614 8.47944 69.7052 20.9557 69.7052 20.9557" fill="#00A0E9"/>
<path fill-rule="evenodd" clip-rule="evenodd" d="M82.1963 29.2963H98.7239C101.54 29.2963 101.575 25.3938 98.7239 25.3938H87.3931V17.7524H97.7123C100.479 17.7524 100.524 14.063 97.7123 14.063H87.3931V7.09103H98.5553C101.278 7.09103 101.327 3.25296 98.5553 3.25296H82.1963V29.3013V29.2963Z" fill="#00A0E9"/>
<path fill-rule="evenodd" clip-rule="evenodd" d="M127.356 29.4351H143.888C146.705 29.4351 146.74 25.5326 143.888 25.5326H132.557V17.8911H142.877C145.644 17.8911 145.688 14.2018 142.877 14.2018H132.557V7.22982H143.72C146.442 7.22982 146.492 3.39174 143.72 3.39174H127.361V29.4401L127.356 29.4351Z" fill="#00A0E9"/>
<path d="M184.248 3.39174C184.952 3.39174 185.601 3.6496 186.181 4.16531C186.767 4.68102 187.059 5.33558 187.059 6.12402V29.4351H181.644L181.634 26.6682V17.9011H172.748V26.6682L172.768 29.4004H167.12V6.12402C167.12 5.28103 167.413 4.61656 167.998 4.12564C168.583 3.63472 169.252 3.39174 170.016 3.39174C170.78 3.39174 171.424 3.66447 171.95 4.20498C172.48 4.74548 172.743 5.39012 172.743 6.11906V14.2018H181.629V6.12402C181.629 5.39012 181.902 4.75044 182.443 4.20994C182.988 3.66447 183.583 3.3967 184.238 3.3967" fill="#00A0E9"/>
<path d="M164.447 21.0897C164.155 20.9706 163.842 20.9062 163.5 20.9062C163.158 20.9062 162.851 20.9409 162.608 21.0103C162.379 21.0748 162.196 21.169 162.062 21.293C161.903 21.4368 161.75 21.6054 161.601 21.7839C161.447 21.9674 161.298 22.1756 161.15 22.4037C160.956 22.6963 160.743 22.9641 160.5 23.1971C160.257 23.4351 159.989 23.6385 159.692 23.817C159.424 23.9806 159.117 24.1244 158.769 24.2484C158.422 24.3724 158.036 24.4765 157.609 24.5608H157.584L157.059 24.5657C156.682 24.5657 156.325 24.531 155.983 24.4666C155.64 24.4021 155.318 24.3029 155.016 24.169C154.718 24.0401 154.436 23.8864 154.173 23.7079C153.91 23.5343 153.667 23.336 153.439 23.1128C153.211 22.8897 153.007 22.6517 152.829 22.3889C152.655 22.131 152.502 21.8483 152.378 21.5459C152.254 21.2434 152.159 20.931 152.105 20.6087C152.05 20.2913 152.03 19.969 152.045 19.6318V12.9722C152.045 12.6499 152.08 12.3325 152.145 12.0201C152.209 11.7077 152.308 11.4052 152.442 11.1126C152.576 10.8201 152.73 10.5473 152.903 10.2994C153.082 10.0465 153.28 9.8184 153.503 9.61013C153.94 9.19855 154.455 8.87128 155.04 8.62334C155.338 8.49937 155.645 8.40515 155.968 8.34069C156.29 8.27623 156.627 8.24647 156.974 8.24647C157.262 8.24647 157.525 8.26135 157.758 8.2911L157.793 8.30102C158.179 8.4002 158.526 8.50929 158.844 8.63326C159.161 8.75723 159.444 8.89111 159.692 9.03492C160.004 9.21343 160.282 9.4217 160.525 9.65972C160.768 9.89774 160.981 10.1606 161.16 10.4581C161.303 10.6812 161.457 10.8895 161.621 11.073C161.784 11.2614 161.958 11.43 162.141 11.5788C162.479 11.8565 162.92 11.9953 163.465 11.9953C164.17 11.9953 164.77 11.7424 165.27 11.2416C165.523 10.9887 165.712 10.711 165.836 10.4135C165.96 10.1159 166.024 9.78865 166.024 9.43658C166.024 9.32748 166.014 9.21343 165.994 9.09938C165.975 8.98037 165.94 8.86136 165.895 8.73243C165.851 8.60351 165.801 8.47954 165.751 8.36548C165.702 8.25639 165.652 8.15722 165.603 8.06796C165.186 7.33902 164.695 6.69438 164.125 6.12908C163.56 5.56379 162.92 5.07783 162.206 4.67617C161.735 4.4084 161.239 4.18029 160.728 3.99682C160.217 3.81334 159.682 3.6745 159.131 3.58028H159.122C158.809 3.51086 158.482 3.46127 158.135 3.42656C157.788 3.39185 157.416 3.37697 157.014 3.37697C156.28 3.37697 155.586 3.44144 154.921 3.57037C154.262 3.69929 153.637 3.89268 153.042 4.14558C151.852 4.66129 150.821 5.36048 149.943 6.24809C149.506 6.69438 149.115 7.17538 148.768 7.69605C148.421 8.21672 148.123 8.77706 147.875 9.36715C147.627 9.95725 147.439 10.5721 147.315 11.2069C147.191 11.8416 147.126 12.4961 147.126 13.1755V19.9591C147.126 20.6334 147.196 21.283 147.33 21.9128C147.463 22.5376 147.667 23.1376 147.935 23.7178C148.207 24.298 148.52 24.8434 148.877 25.3443C149.234 25.8451 149.635 26.3112 150.082 26.7377C150.528 27.1641 151.009 27.541 151.53 27.8732C152.05 28.2055 152.606 28.4881 153.201 28.7212C154.386 29.1923 155.66 29.4303 157.014 29.4303H157.391C158.298 29.4303 159.156 29.3262 159.965 29.1228C160.773 28.9195 161.536 28.6071 162.246 28.2005C163.674 27.3774 164.775 26.2815 165.558 24.9079C165.622 24.7839 165.682 24.655 165.737 24.5261C165.796 24.3971 165.846 24.2732 165.895 24.1542C165.94 24.0451 165.97 23.931 165.989 23.817C166.009 23.7029 166.019 23.5839 166.019 23.4599C166.019 23.093 165.955 22.7558 165.831 22.4533C165.707 22.1508 165.518 21.8781 165.27 21.6351C165.017 21.3872 164.745 21.2037 164.452 21.0847" fill="#00A0E9"/>
<path d="M124.683 3.58018C124.38 3.45621 124.043 3.39174 123.671 3.39174H108.651C108.294 3.39174 107.972 3.45621 107.674 3.58018C107.377 3.70414 107.104 3.89258 106.861 4.14547C106.37 4.65127 106.122 5.25624 106.122 5.96534C106.122 6.33229 106.182 6.66948 106.306 6.97197C106.43 7.26949 106.613 7.54222 106.856 7.78024C107.104 8.01826 107.377 8.20174 107.674 8.32075C107.972 8.43976 108.299 8.49926 108.656 8.49926H113.655C113.655 15.4812 113.655 22.4631 113.655 29.4451H118.708L118.718 27.0153V8.4943H123.676C124.048 8.4943 124.385 8.4348 124.693 8.31579C124.995 8.19678 125.273 8.01826 125.516 7.78024C126.007 7.3042 126.25 6.69923 126.25 5.96534C126.25 5.60831 126.19 5.28103 126.066 4.97854C125.943 4.67606 125.759 4.39837 125.511 4.14547C125.263 3.89258 124.99 3.70414 124.688 3.58018" fill="#00A0E9"/>
<path fill-rule="evenodd" clip-rule="evenodd" d="M23.4202 3.15371C27.2583 5.84632 29.7674 10.3042 29.7674 15.3473C29.7674 23.5689 23.1029 30.2285 14.8862 30.2285C6.66953 30.2285 0 23.5689 0 15.3473C0 10.1505 2.66285 5.57854 6.69928 2.91569C7.15053 2.48428 7.76046 2.21651 8.43485 2.21651C9.81834 2.21651 10.939 3.33718 10.939 4.72068C10.939 5.65292 10.4332 6.4612 9.67949 6.89757C9.62991 6.92732 9.57536 6.95708 9.52081 6.98187C9.01998 7.22485 9.3175 7.09592 8.95056 7.36865C6.51581 9.18356 4.93396 12.0844 4.93396 15.3523C4.93396 20.8466 9.38693 25.2995 14.8812 25.2995C20.3755 25.2995 24.8285 20.8466 24.8285 15.3523C24.8285 12.258 23.4153 9.491 21.1937 7.66618C20.7673 7.32898 21.0003 7.49758 20.7078 7.30419C20.6979 7.29923 20.6879 7.29427 20.6731 7.28931C19.8202 6.88765 19.2301 6.02483 19.2301 5.0182C19.2301 3.63471 20.3507 2.51403 21.7342 2.51403C22.3789 2.51403 22.964 2.75701 23.4103 3.15867" fill="#00A0E9"/>
<path fill-rule="evenodd" clip-rule="evenodd" d="M15.2085 5.34058C13.7358 5.34058 12.5358 4.14552 12.5358 2.67277C12.5358 1.19506 13.7308 0 15.2036 0C16.6763 0 17.8763 1.19506 17.8763 2.67277C17.8763 4.14552 16.6813 5.34554 15.2085 5.34554V5.34058Z" fill="url(#paint0_linear_5_701)"/>
<defs>
<linearGradient id="paint0_linear_5_701" x1="15.2008" y1="0.000437733" x2="15.2018" y2="5.34102" gradientUnits="userSpaceOnUse">
<stop stop-color="#303C57"/>
<stop offset="1" stop-color="#00A0E9"/>
</linearGradient>
</defs>
</svg>
